# MagicaVoxel @ Ephtracy

# group
o 

# material
mtllib Chair01.mtl
usemtl palette

# normals
vn -1 0 0
vn 1 0 0
vn 0 0 1
vn 0 0 -1
vn 0 -1 0
vn 0 1 0

# texcoords
vt 0.658203 0.5
vt 0.662109 0.5
vt 0.783203 0.5

# verts
v 0 2.8 0
v 0 2.8 -1
v 0 2.9 0
v 0 2.9 -1
v 0.1 2 0
v 0.1 2 -0.1
v 0.1 2 -0.9
v 0.1 2 -1
v 0.1 2.8 0
v 0.1 2.8 -0.1
v 0.1 2.8 -0.9
v 0.1 2.8 -1
v 0.1 2.9 0
v 0.1 2.9 -1
v 0.1 3 0
v 0.1 3 -1
v 0.2 3 -0.2
v 0.2 3 -0.8
v 0.2 3.1 -0.2
v 0.2 3.1 -0.8
v 0.3 3 -0.1
v 0.3 3 -0.2
v 0.3 3 -0.8
v 0.3 3 -0.9
v 0.3 3.1 -0.1
v 0.3 3.1 -0.2
v 0.3 3.1 -0.8
v 0.3 3.1 -0.9
v 0.6 2.8 -0.8
v 0.6 2.8 -0.9
v 0.6 2.9 -0.8
v 0.6 2.9 -0.9
v 0.8 2.8 -0.1
v 0.8 2.8 -0.2
v 0.8 2.9 -0.1
v 0.8 2.9 -0.2
v 0.9 2.8 -0.2
v 0.9 2.8 -0.3
v 0.9 2.9 -0.2
v 0.9 2.9 -0.3
v 1 2 0
v 1 2 -0.1
v 1 2 -0.9
v 1 2 -1
v 1 2.8 0
v 1 2.8 -0.1
v 1 2.8 -0.3
v 1 2.8 -0.9
v 1 2.8 -1
v 1 2.9 -0.3
v 1 2.9 -0.9
v 1 3 0
v 1 3 -0.1
v 1 3 -0.3
v 1 3 -0.4
v 1 3 -0.6
v 1 3 -0.7
v 1 3 -0.9
v 1 3 -1
v 1 3.8 -0.1
v 1 3.8 -0.2
v 1 3.8 -0.8
v 1 3.8 -0.9
v 1 3.9 0
v 1 3.9 -0.1
v 1 3.9 -0.9
v 1 3.9 -1
v 1 4.1 -0.1
v 1 4.1 -0.2
v 1 4.1 -0.3
v 1 4.1 -0.4
v 1 4.1 -0.6
v 1 4.1 -0.7
v 1 4.1 -0.8
v 1 4.1 -0.9
v 1 4.2 -0.1
v 1 4.2 -0.9
v 0.2 2 0
v 0.2 2 -0.1
v 0.2 2 -0.9
v 0.2 2 -1
v 0.2 2.8 0
v 0.2 2.8 -0.1
v 0.2 2.8 -0.8
v 0.2 2.8 -0.9
v 0.2 2.8 -1
v 0.2 2.9 -0.1
v 0.2 2.9 -0.2
v 0.2 2.9 -0.8
v 0.3 2.8 -0.8
v 0.3 2.8 -0.9
v 0.3 2.9 -0.8
v 0.3 2.9 -0.9
v 0.7 2.8 -0.8
v 0.7 2.8 -0.9
v 0.7 2.9 -0.8
v 0.7 2.9 -0.9
v 0.8 3 -0.1
v 0.8 3 -0.2
v 0.8 3 -0.8
v 0.8 3 -0.9
v 0.8 3.1 -0.1
v 0.8 3.1 -0.2
v 0.8 3.1 -0.8
v 0.8 3.1 -0.9
v 0.9 3 -0.2
v 0.9 3 -0.8
v 0.9 3.1 -0.2
v 0.9 3.1 -0.8
v 1.1 2 0
v 1.1 2 -0.1
v 1.1 2 -0.9
v 1.1 2 -1
v 1.1 2.8 -0.1
v 1.1 2.8 -0.9
v 1.1 2.9 -0.1
v 1.1 2.9 -0.9
v 1.1 3 -0.1
v 1.1 3 -0.3
v 1.1 3 -0.4
v 1.1 3 -0.6
v 1.1 3 -0.7
v 1.1 3 -0.9
v 1.1 3.8 -0.1
v 1.1 3.8 -0.2
v 1.1 3.8 -0.8
v 1.1 3.8 -0.9
v 1.1 3.9 0
v 1.1 3.9 -0.1
v 1.1 3.9 -0.9
v 1.1 3.9 -1
v 1.1 4.1 -0.1
v 1.1 4.1 -0.2
v 1.1 4.1 -0.3
v 1.1 4.1 -0.4
v 1.1 4.1 -0.6
v 1.1 4.1 -0.7
v 1.1 4.1 -0.8
v 1.1 4.1 -0.9
v 1.1 4.2 -0.1
v 1.1 4.2 -0.9
v 0 2.8 0
v 0 2.9 0
v 0.1 2 0
v 0.1 2.8 0
v 0.1 2.9 0
v 0.1 3 0
v 0.2 2 0
v 0.2 2.8 0
v 1 2 0
v 1 2.8 0
v 1 2.9 0
v 1 3 0
v 1 3.9 0
v 1.1 2 0
v 1.1 3.9 0
v 0.3 3 -0.1
v 0.3 3.1 -0.1
v 0.8 3 -0.1
v 0.8 3.1 -0.1
v 1 3.9 -0.1
v 1 4.1 -0.1
v 1 4.2 -0.1
v 1.1 3.9 -0.1
v 1.1 4.1 -0.1
v 1.1 4.2 -0.1
v 0.2 3 -0.2
v 0.2 3.1 -0.2
v 0.3 3 -0.2
v 0.3 3.1 -0.2
v 0.8 3 -0.2
v 0.8 3.1 -0.2
v 0.9 3 -0.2
v 0.9 3.1 -0.2
v 1 3 -0.3
v 1 4.1 -0.3
v 1.1 3 -0.3
v 1.1 4.1 -0.3
v 1 3 -0.6
v 1 4.1 -0.6
v 1.1 3 -0.6
v 1.1 4.1 -0.6
v 0.2 2.8 -0.8
v 0.2 2.9 -0.8
v 0.3 2.8 -0.8
v 0.3 2.9 -0.8
v 0.6 2.8 -0.8
v 0.6 2.9 -0.8
v 0.7 2.8 -0.8
v 0.7 2.9 -0.8
v 1 3.8 -0.8
v 1 4.1 -0.8
v 1.1 3.8 -0.8
v 1.1 4.1 -0.8
v 0.1 2 -0.9
v 0.1 2.8 -0.9
v 0.2 2 -0.9
v 0.2 2.8 -0.9
v 0.3 2.8 -0.9
v 0.3 2.9 -0.9
v 0.6 2.8 -0.9
v 0.6 2.9 -0.9
v 0.7 2.8 -0.9
v 0.7 2.9 -0.9
v 0.8 2.9 -0.9
v 0.9 2.9 -0.9
v 1 2 -0.9
v 1 2.8 -0.9
v 1 2.9 -0.9
v 1 3 -0.9
v 1 3.8 -0.9
v 1.1 2 -0.9
v 1.1 2.8 -0.9
v 1.1 3 -0.9
v 1.1 3.8 -0.9
v 0.1 2 -0.1
v 0.1 2.8 -0.1
v 0.2 2 -0.1
v 0.2 2.8 -0.1
v 0.2 2.9 -0.1
v 0.3 2.9 -0.1
v 0.8 2.8 -0.1
v 0.8 2.9 -0.1
v 1 2 -0.1
v 1 2.8 -0.1
v 1 3 -0.1
v 1 3.8 -0.1
v 1.1 2 -0.1
v 1.1 2.8 -0.1
v 1.1 3 -0.1
v 1.1 3.8 -0.1
v 0.8 2.8 -0.2
v 0.8 2.9 -0.2
v 0.9 2.8 -0.2
v 0.9 2.9 -0.2
v 1 3.8 -0.2
v 1 4.1 -0.2
v 1.1 3.8 -0.2
v 1.1 4.1 -0.2
v 0.9 2.8 -0.3
v 0.9 2.9 -0.3
v 1 2.8 -0.3
v 1 2.9 -0.3
v 1 3 -0.4
v 1 4.1 -0.4
v 1.1 3 -0.4
v 1.1 4.1 -0.4
v 1 3 -0.7
v 1 4.1 -0.7
v 1.1 3 -0.7
v 1.1 4.1 -0.7
v 0.2 3 -0.8
v 0.2 3.1 -0.8
v 0.3 3 -0.8
v 0.3 3.1 -0.8
v 0.8 3 -0.8
v 0.8 3.1 -0.8
v 0.9 3 -0.8
v 0.9 3.1 -0.8
v 0.3 3 -0.9
v 0.3 3.1 -0.9
v 0.8 3 -0.9
v 0.8 3.1 -0.9
v 1 3.9 -0.9
v 1 4.1 -0.9
v 1 4.2 -0.9
v 1.1 3.9 -0.9
v 1.1 4.1 -0.9
v 1.1 4.2 -0.9
v 0 2.8 -1
v 0 2.9 -1
v 0.1 2 -1
v 0.1 2.8 -1
v 0.1 2.9 -1
v 0.1 3 -1
v 0.2 2 -1
v 0.2 2.8 -1
v 1 2 -1
v 1 2.8 -1
v 1 2.9 -1
v 1 3 -1
v 1 3.9 -1
v 1.1 2 -1
v 1.1 3.9 -1
v 0.1 2 0
v 0.2 2 0
v 1 2 0
v 1.1 2 0
v 0.1 2 -0.1
v 0.2 2 -0.1
v 1 2 -0.1
v 1.1 2 -0.1
v 0.1 2 -0.9
v 0.2 2 -0.9
v 1 2 -0.9
v 1.1 2 -0.9
v 0.1 2 -1
v 0.2 2 -1
v 1 2 -1
v 1.1 2 -1
v 0 2.8 0
v 0.1 2.8 0
v 0.2 2.8 0
v 1 2.8 0
v 0.1 2.8 -0.1
v 0.2 2.8 -0.1
v 0.8 2.8 -0.1
v 1 2.8 -0.1
v 1.1 2.8 -0.1
v 0.8 2.8 -0.2
v 0.9 2.8 -0.2
v 0.9 2.8 -0.3
v 1 2.8 -0.3
v 0.2 2.8 -0.8
v 0.3 2.8 -0.8
v 0.6 2.8 -0.8
v 0.7 2.8 -0.8
v 0.1 2.8 -0.9
v 0.2 2.8 -0.9
v 0.3 2.8 -0.9
v 0.6 2.8 -0.9
v 0.7 2.8 -0.9
v 1 2.8 -0.9
v 1.1 2.8 -0.9
v 0 2.8 -1
v 0.1 2.8 -1
v 0.2 2.8 -1
v 1 2.8 -1
v 0.2 2.9 -0.1
v 0.3 2.9 -0.1
v 0.8 2.9 -0.1
v 0.2 2.9 -0.2
v 0.3 2.9 -0.2
v 0.8 2.9 -0.2
v 0.9 2.9 -0.2
v 0.9 2.9 -0.3
v 1 2.9 -0.3
v 0.2 2.9 -0.8
v 0.3 2.9 -0.8
v 0.6 2.9 -0.8
v 0.7 2.9 -0.8
v 0.8 2.9 -0.8
v 0.9 2.9 -0.8
v 0.3 2.9 -0.9
v 0.6 2.9 -0.9
v 0.7 2.9 -0.9
v 0.8 2.9 -0.9
v 0.9 2.9 -0.9
v 1 2.9 -0.9
v 1 3.8 -0.1
v 1.1 3.8 -0.1
v 1 3.8 -0.2
v 1.1 3.8 -0.2
v 1 3.8 -0.8
v 1.1 3.8 -0.8
v 1 3.8 -0.9
v 1.1 3.8 -0.9
v 1 4.1 -0.2
v 1.1 4.1 -0.2
v 1 4.1 -0.3
v 1.1 4.1 -0.3
v 1 4.1 -0.4
v 1.1 4.1 -0.4
v 1 4.1 -0.6
v 1.1 4.1 -0.6
v 1 4.1 -0.7
v 1.1 4.1 -0.7
v 1 4.1 -0.8
v 1.1 4.1 -0.8
v 0 2.9 0
v 0.1 2.9 0
v 0 2.9 -1
v 0.1 2.9 -1
v 0.1 3 0
v 1 3 0
v 0.2 3 -0.1
v 0.3 3 -0.1
v 0.8 3 -0.1
v 0.9 3 -0.1
v 1 3 -0.1
v 1.1 3 -0.1
v 0.2 3 -0.2
v 0.3 3 -0.2
v 0.8 3 -0.2
v 0.9 3 -0.2
v 1 3 -0.3
v 1.1 3 -0.3
v 1 3 -0.4
v 1.1 3 -0.4
v 1 3 -0.6
v 1.1 3 -0.6
v 1 3 -0.7
v 1.1 3 -0.7
v 0.2 3 -0.8
v 0.3 3 -0.8
v 0.8 3 -0.8
v 0.9 3 -0.8
v 0.2 3 -0.9
v 0.3 3 -0.9
v 0.8 3 -0.9
v 0.9 3 -0.9
v 1 3 -0.9
v 1.1 3 -0.9
v 0.1 3 -1
v 1 3 -1
v 0.3 3.1 -0.1
v 0.8 3.1 -0.1
v 0.2 3.1 -0.2
v 0.3 3.1 -0.2
v 0.8 3.1 -0.2
v 0.9 3.1 -0.2
v 0.2 3.1 -0.8
v 0.3 3.1 -0.8
v 0.8 3.1 -0.8
v 0.9 3.1 -0.8
v 0.3 3.1 -0.9
v 0.8 3.1 -0.9
v 1 3.9 0
v 1.1 3.9 0
v 1 3.9 -0.1
v 1.1 3.9 -0.1
v 1 3.9 -0.9
v 1.1 3.9 -0.9
v 1 3.9 -1
v 1.1 3.9 -1
v 1 4.2 -0.1
v 1.1 4.2 -0.1
v 1 4.2 -0.9
v 1.1 4.2 -0.9

# faces
f 3/1/1 2/1/1 1/1/1
f 4/1/1 2/1/1 3/1/1
f 9/2/1 6/2/1 5/2/1
f 10/2/1 6/2/1 9/2/1
f 11/2/1 8/2/1 7/2/1
f 12/2/1 8/2/1 11/2/1
f 15/1/1 14/1/1 13/1/1
f 16/1/1 14/1/1 15/1/1
f 19/3/1 18/3/1 17/3/1
f 20/3/1 18/3/1 19/3/1
f 25/3/1 22/3/1 21/3/1
f 26/3/1 22/3/1 25/3/1
f 27/3/1 24/3/1 23/3/1
f 28/3/1 24/3/1 27/3/1
f 31/2/1 30/2/1 29/2/1
f 32/2/1 30/2/1 31/2/1
f 35/2/1 34/2/1 33/2/1
f 36/2/1 34/2/1 35/2/1
f 39/2/1 38/2/1 37/2/1
f 40/2/1 38/2/1 39/2/1
f 45/2/1 42/2/1 41/2/1
f 46/2/1 42/2/1 45/2/1
f 48/2/1 44/2/1 43/2/1
f 49/2/1 44/2/1 48/2/1
f 50/2/1 48/2/1 47/2/1
f 51/2/1 48/2/1 50/2/1
f 60/2/1 53/2/1 52/2/1
f 63/2/1 59/2/1 58/2/1
f 64/2/1 61/2/1 60/2/1
f 64/2/1 60/2/1 52/2/1
f 65/2/1 61/2/1 64/2/1
f 66/2/1 63/2/1 62/2/1
f 66/2/1 59/2/1 63/2/1
f 67/2/1 59/2/1 66/2/1
f 68/2/1 61/2/1 65/2/1
f 69/2/1 61/2/1 68/2/1
f 70/2/1 55/2/1 54/2/1
f 71/2/1 55/2/1 70/2/1
f 72/2/1 57/2/1 56/2/1
f 73/2/1 57/2/1 72/2/1
f 74/2/1 66/2/1 62/2/1
f 75/2/1 66/2/1 74/2/1
f 76/1/1 71/1/1 70/1/1
f 76/1/1 69/1/1 68/1/1
f 76/1/1 75/1/1 74/1/1
f 76/1/1 74/1/1 73/1/1
f 76/1/1 73/1/1 72/1/1
f 76/1/1 72/1/1 71/1/1
f 76/1/1 70/1/1 69/1/1
f 77/1/1 75/1/1 76/1/1
f 78/2/2 79/2/2 82/2/2
f 82/2/2 79/2/2 83/2/2
f 80/2/2 81/2/2 85/2/2
f 85/2/2 81/2/2 86/2/2
f 83/2/2 84/2/2 87/2/2
f 87/2/2 84/2/2 88/2/2
f 88/2/2 84/2/2 89/2/2
f 90/2/2 91/2/2 92/2/2
f 92/2/2 91/2/2 93/2/2
f 94/2/2 95/2/2 96/2/2
f 96/2/2 95/2/2 97/2/2
f 98/3/2 99/3/2 102/3/2
f 102/3/2 99/3/2 103/3/2
f 100/3/2 101/3/2 104/3/2
f 104/3/2 101/3/2 105/3/2
f 106/3/2 107/3/2 108/3/2
f 108/3/2 107/3/2 109/3/2
f 110/2/2 111/2/2 114/2/2
f 112/2/2 113/2/2 115/2/2
f 110/2/2 114/2/2 116/2/2
f 114/2/2 115/2/2 116/2/2
f 115/2/2 113/2/2 117/2/2
f 116/2/2 115/2/2 117/2/2
f 110/2/2 116/2/2 118/2/2
f 116/1/2 117/1/2 118/1/2
f 118/1/2 117/1/2 119/1/2
f 119/1/2 117/1/2 120/1/2
f 120/1/2 117/1/2 121/1/2
f 121/1/2 117/1/2 122/1/2
f 117/2/2 113/2/2 123/2/2
f 122/1/2 117/1/2 123/1/2
f 110/2/2 118/2/2 124/2/2
f 123/2/2 113/2/2 127/2/2
f 124/2/2 125/2/2 128/2/2
f 110/2/2 124/2/2 128/2/2
f 128/2/2 125/2/2 129/2/2
f 126/2/2 127/2/2 130/2/2
f 127/2/2 113/2/2 130/2/2
f 130/2/2 113/2/2 131/2/2
f 129/2/2 125/2/2 132/2/2
f 132/2/2 125/2/2 133/2/2
f 119/2/2 120/2/2 134/2/2
f 134/2/2 120/2/2 135/2/2
f 121/2/2 122/2/2 136/2/2
f 136/2/2 122/2/2 137/2/2
f 126/2/2 130/2/2 138/2/2
f 138/2/2 130/2/2 139/2/2
f 134/1/2 135/1/2 140/1/2
f 132/1/2 133/1/2 140/1/2
f 138/1/2 139/1/2 140/1/2
f 137/1/2 138/1/2 140/1/2
f 136/1/2 137/1/2 140/1/2
f 135/1/2 136/1/2 140/1/2
f 133/1/2 134/1/2 140/1/2
f 140/1/2 139/1/2 141/1/2
f 145/1/3 143/1/3 142/1/3
f 146/1/3 143/1/3 145/1/3
f 148/2/3 145/2/3 144/2/3
f 148/2/3 146/2/3 145/2/3
f 149/2/3 146/2/3 148/2/3
f 151/2/3 146/2/3 149/2/3
f 152/1/3 147/1/3 146/1/3
f 152/2/3 146/2/3 151/2/3
f 153/1/3 147/1/3 152/1/3
f 155/2/3 151/2/3 150/2/3
f 155/2/3 154/2/3 153/2/3
f 155/2/3 153/2/3 152/2/3
f 155/2/3 152/2/3 151/2/3
f 156/2/3 154/2/3 155/2/3
f 159/3/3 158/3/3 157/3/3
f 160/3/3 158/3/3 159/3/3
f 164/2/3 162/2/3 161/2/3
f 165/1/3 163/1/3 162/1/3
f 165/2/3 162/2/3 164/2/3
f 166/1/3 163/1/3 165/1/3
f 169/3/3 168/3/3 167/3/3
f 170/3/3 168/3/3 169/3/3
f 173/3/3 172/3/3 171/3/3
f 174/3/3 172/3/3 173/3/3
f 177/2/3 176/2/3 175/2/3
f 178/2/3 176/2/3 177/2/3
f 181/2/3 180/2/3 179/2/3
f 182/2/3 180/2/3 181/2/3
f 185/2/3 184/2/3 183/2/3
f 186/2/3 184/2/3 185/2/3
f 189/2/3 188/2/3 187/2/3
f 190/2/3 188/2/3 189/2/3
f 193/2/3 192/2/3 191/2/3
f 194/2/3 192/2/3 193/2/3
f 197/2/3 196/2/3 195/2/3
f 198/2/3 196/2/3 197/2/3
f 201/2/3 200/2/3 199/2/3
f 202/2/3 200/2/3 201/2/3
f 205/2/3 204/2/3 203/2/3
f 206/2/3 205/2/3 203/2/3
f 208/2/3 206/2/3 203/2/3
f 209/2/3 206/2/3 208/2/3
f 212/2/3 208/2/3 207/2/3
f 213/2/3 208/2/3 212/2/3
f 214/2/3 211/2/3 210/2/3
f 215/2/3 211/2/3 214/2/3
f 216/2/4 217/2/4 218/2/4
f 218/2/4 217/2/4 219/2/4
f 219/2/4 220/2/4 221/2/4
f 219/2/4 221/2/4 222/2/4
f 222/2/4 221/2/4 223/2/4
f 224/2/4 225/2/4 228/2/4
f 228/2/4 225/2/4 229/2/4
f 226/2/4 227/2/4 230/2/4
f 230/2/4 227/2/4 231/2/4
f 232/2/4 233/2/4 234/2/4
f 234/2/4 233/2/4 235/2/4
f 236/2/4 237/2/4 238/2/4
f 238/2/4 237/2/4 239/2/4
f 240/2/4 241/2/4 242/2/4
f 242/2/4 241/2/4 243/2/4
f 244/2/4 245/2/4 246/2/4
f 246/2/4 245/2/4 247/2/4
f 248/2/4 249/2/4 250/2/4
f 250/2/4 249/2/4 251/2/4
f 252/3/4 253/3/4 254/3/4
f 254/3/4 253/3/4 255/3/4
f 256/3/4 257/3/4 258/3/4
f 258/3/4 257/3/4 259/3/4
f 260/3/4 261/3/4 262/3/4
f 262/3/4 261/3/4 263/3/4
f 264/2/4 265/2/4 267/2/4
f 265/1/4 266/1/4 268/1/4
f 267/2/4 265/2/4 268/2/4
f 268/1/4 266/1/4 269/1/4
f 270/1/4 271/1/4 273/1/4
f 273/1/4 271/1/4 274/1/4
f 272/2/4 273/2/4 276/2/4
f 273/2/4 274/2/4 276/2/4
f 276/2/4 274/2/4 277/2/4
f 277/2/4 274/2/4 279/2/4
f 274/1/4 275/1/4 280/1/4
f 279/2/4 274/2/4 280/2/4
f 280/1/4 275/1/4 281/1/4
f 278/2/4 279/2/4 283/2/4
f 281/2/4 282/2/4 283/2/4
f 280/2/4 281/2/4 283/2/4
f 279/2/4 280/2/4 283/2/4
f 283/2/4 282/2/4 284/2/4
f 289/2/5 286/2/5 285/2/5
f 290/2/5 286/2/5 289/2/5
f 291/2/5 288/2/5 287/2/5
f 292/2/5 288/2/5 291/2/5
f 297/2/5 294/2/5 293/2/5
f 298/2/5 294/2/5 297/2/5
f 299/2/5 296/2/5 295/2/5
f 300/2/5 296/2/5 299/2/5
f 305/1/5 302/1/5 301/1/5
f 306/2/5 304/2/5 303/2/5
f 307/2/5 304/2/5 306/2/5
f 308/2/5 304/2/5 307/2/5
f 310/2/5 309/2/5 308/2/5
f 310/2/5 308/2/5 307/2/5
f 311/2/5 309/2/5 310/2/5
f 312/2/5 309/2/5 311/2/5
f 313/2/5 309/2/5 312/2/5
f 314/2/5 306/2/5 305/2/5
f 318/1/5 305/1/5 301/1/5
f 318/2/5 314/2/5 305/2/5
f 318/2/5 315/2/5 314/2/5
f 319/2/5 315/2/5 318/2/5
f 320/2/5 315/2/5 319/2/5
f 321/2/5 317/2/5 316/2/5
f 322/2/5 317/2/5 321/2/5
f 323/2/5 309/2/5 313/2/5
f 324/2/5 309/2/5 323/2/5
f 325/1/5 318/1/5 301/1/5
f 326/1/5 318/1/5 325/1/5
f 327/2/5 320/2/5 319/2/5
f 327/2/5 322/2/5 321/2/5
f 327/2/5 323/2/5 322/2/5
f 327/2/5 321/2/5 320/2/5
f 328/2/5 323/2/5 327/2/5
f 332/3/5 330/3/5 329/3/5
f 333/1/5 331/1/5 330/1/5
f 333/3/5 330/3/5 332/3/5
f 334/1/5 331/1/5 333/1/5
f 336/1/5 333/1/5 332/1/5
f 336/1/5 335/1/5 334/1/5
f 336/1/5 334/1/5 333/1/5
f 338/1/5 336/1/5 332/1/5
f 338/1/5 337/1/5 336/1/5
f 339/1/5 337/1/5 338/1/5
f 340/1/5 337/1/5 339/1/5
f 341/1/5 337/1/5 340/1/5
f 342/1/5 337/1/5 341/1/5
f 343/1/5 337/1/5 342/1/5
f 344/1/5 340/1/5 339/1/5
f 345/1/5 340/1/5 344/1/5
f 346/1/5 342/1/5 341/1/5
f 347/3/5 343/3/5 342/3/5
f 347/1/5 342/1/5 346/1/5
f 348/1/5 337/1/5 343/1/5
f 348/3/5 343/3/5 347/3/5
f 349/1/5 337/1/5 348/1/5
f 352/2/5 351/2/5 350/2/5
f 353/2/5 351/2/5 352/2/5
f 356/2/5 355/2/5 354/2/5
f 357/2/5 355/2/5 356/2/5
f 360/1/5 359/1/5 358/1/5
f 361/1/5 359/1/5 360/1/5
f 364/1/5 363/1/5 362/1/5
f 365/1/5 363/1/5 364/1/5
f 368/1/5 367/1/5 366/1/5
f 369/1/5 367/1/5 368/1/5
f 370/1/6 371/1/6 372/1/6
f 372/1/6 371/1/6 373/1/6
f 374/1/6 375/1/6 376/1/6
f 376/1/6 375/1/6 377/1/6
f 377/1/6 375/1/6 378/1/6
f 378/1/6 375/1/6 379/1/6
f 379/1/6 375/1/6 380/1/6
f 374/1/6 376/1/6 382/1/6
f 376/3/6 377/3/6 382/3/6
f 382/3/6 377/3/6 383/3/6
f 378/3/6 379/3/6 384/3/6
f 380/1/6 381/1/6 385/1/6
f 384/3/6 379/3/6 385/3/6
f 379/1/6 380/1/6 385/1/6
f 385/1/6 381/1/6 386/1/6
f 386/1/6 381/1/6 387/1/6
f 385/1/6 386/1/6 388/1/6
f 385/1/6 388/1/6 390/1/6
f 388/1/6 389/1/6 390/1/6
f 390/1/6 389/1/6 391/1/6
f 385/1/6 390/1/6 392/1/6
f 374/1/6 382/1/6 394/1/6
f 392/1/6 393/1/6 397/1/6
f 385/1/6 392/1/6 397/1/6
f 394/3/6 395/3/6 398/3/6
f 374/1/6 394/1/6 398/1/6
f 398/3/6 395/3/6 399/3/6
f 396/3/6 397/3/6 400/3/6
f 397/1/6 393/1/6 401/1/6
f 400/3/6 397/3/6 401/3/6
f 401/1/6 393/1/6 402/1/6
f 402/1/6 393/1/6 403/1/6
f 398/1/6 399/1/6 404/1/6
f 399/1/6 400/1/6 404/1/6
f 401/1/6 402/1/6 404/1/6
f 400/1/6 401/1/6 404/1/6
f 374/1/6 398/1/6 404/1/6
f 404/1/6 402/1/6 405/1/6
f 406/3/6 407/3/6 409/3/6
f 409/3/6 407/3/6 410/3/6
f 408/3/6 409/3/6 412/3/6
f 410/3/6 411/3/6 412/3/6
f 409/3/6 410/3/6 412/3/6
f 412/3/6 411/3/6 413/3/6
f 413/3/6 411/3/6 414/3/6
f 414/3/6 411/3/6 415/3/6
f 413/3/6 414/3/6 416/3/6
f 416/3/6 414/3/6 417/3/6
f 418/2/6 419/2/6 420/2/6
f 420/2/6 419/2/6 421/2/6
f 422/2/6 423/2/6 424/2/6
f 424/2/6 423/2/6 425/2/6
f 426/1/6 427/1/6 428/1/6
f 428/1/6 427/1/6 429/1/6
