# MagicaVoxel @ Ephtracy

# group
o 

# material
mtllib Classeur.mtl
usemtl palette

# normals
vn -1 0 0
vn 1 0 0
vn 0 0 1
vn 0 0 -1
vn 0 -1 0
vn 0 1 0

# texcoords
vt 0.771484 0.5
vt 0.775391 0.5
vt 0.791016 0.5
vt 0.923828 0.5
vt 0.927734 0.5
vt 0.935547 0.5
vt 0.958984 0.5

# verts
v 0 2 0
v 0 2 -0.7
v 0 2.2 -0.3
v 0 2.2 -0.4
v 0 2.3 -0.2
v 0 2.3 -0.3
v 0 2.3 -0.4
v 0 2.3 -0.5
v 0 2.4 -0.1
v 0 2.4 -0.2
v 0 2.4 -0.3
v 0 2.4 -0.4
v 0 2.4 -0.5
v 0 2.4 -0.6
v 0 2.5 -0.1
v 0 2.5 -0.2
v 0 2.5 -0.3
v 0 2.5 -0.4
v 0 2.5 -0.5
v 0 2.5 -0.6
v 0 2.6 -0.2
v 0 2.6 -0.3
v 0 2.6 -0.4
v 0 2.6 -0.5
v 0 2.7 -0.3
v 0 2.7 -0.4
v 0 2.9 -0.2
v 0 2.9 -0.3
v 0 3.5 -0.2
v 0 3.5 -0.3
v 0 3.6 -0.2
v 0 3.6 -0.5
v 0 4.4 -0.2
v 0 4.4 -0.5
v 0 4.6 -0.2
v 0 4.6 -0.3
v 0 4.7 -0.3
v 0 4.7 -0.4
v 0 4.8 -0.2
v 0 4.8 -0.4
v 0 4.9 0
v 0 4.9 -0.7
v 0.6 2.9 -0.3
v 0.6 2.9 -0.4
v 0.6 3 -0.3
v 0.6 3 -0.4
v 0.6 3.9 -0.3
v 0.6 3.9 -0.4
v 0.6 4 -0.3
v 0.6 4 -0.4
v 0.1 2 -0.1
v 0.1 2 -0.6
v 0.1 2.1 -0.1
v 0.1 2.1 -0.6
v 0.1 4.8 -0.1
v 0.1 4.8 -0.6
v 0.1 4.9 -0.1
v 0.1 4.9 -0.6
v 0.2 2.1 -0.1
v 0.2 2.1 -0.6
v 0.2 2.3 -0.2
v 0.2 2.3 -0.5
v 0.2 2.4 -0.3
v 0.2 2.4 -0.4
v 0.2 2.5 -0.3
v 0.2 2.5 -0.4
v 0.2 2.8 -0.3
v 0.2 2.8 -0.4
v 0.2 2.9 -0.2
v 0.2 2.9 -0.3
v 0.2 2.9 -0.4
v 0.2 2.9 -0.5
v 0.2 3 -0.2
v 0.2 3 -0.3
v 0.2 3 -0.4
v 0.2 3 -0.5
v 0.2 3.1 -0.3
v 0.2 3.1 -0.4
v 0.2 3.2 -0.3
v 0.2 3.2 -0.4
v 0.2 3.7 -0.3
v 0.2 3.7 -0.4
v 0.2 3.8 -0.3
v 0.2 3.8 -0.4
v 0.2 3.9 -0.2
v 0.2 3.9 -0.3
v 0.2 3.9 -0.4
v 0.2 3.9 -0.5
v 0.2 4 -0.2
v 0.2 4 -0.3
v 0.2 4 -0.4
v 0.2 4 -0.5
v 0.2 4.1 -0.3
v 0.2 4.1 -0.4
v 0.2 4.4 -0.3
v 0.2 4.4 -0.4
v 0.2 4.5 -0.3
v 0.2 4.5 -0.4
v 0.2 4.6 -0.2
v 0.2 4.6 -0.5
v 0.2 4.8 -0.1
v 0.2 4.8 -0.6
v 0.6 2.9 -0.2
v 0.6 2.9 -0.3
v 0.6 3 -0.2
v 0.6 3 -0.3
v 0.6 3.9 -0.2
v 0.6 3.9 -0.3
v 0.6 4 -0.2
v 0.6 4 -0.3
v 0.7 2.9 -0.3
v 0.7 2.9 -0.5
v 0.7 3 -0.3
v 0.7 3 -0.5
v 0.7 3.9 -0.3
v 0.7 3.9 -0.5
v 0.7 4 -0.3
v 0.7 4 -0.5
v 2.2 2 0
v 2.2 2 -0.1
v 2.2 2 -0.6
v 2.2 2 -0.7
v 2.2 2.2 0
v 2.2 2.2 -0.1
v 2.2 2.2 -0.6
v 2.2 2.2 -0.7
v 2.2 4.7 0
v 2.2 4.7 -0.1
v 2.2 4.7 -0.6
v 2.2 4.7 -0.7
v 2.2 4.9 0
v 2.2 4.9 -0.1
v 2.2 4.9 -0.6
v 2.2 4.9 -0.7
v 0 2 0
v 0 4.9 0
v 2 2 0
v 2 2.1 0
v 2 4.8 0
v 2 4.9 0
v 2.1 2.1 0
v 2.1 2.2 0
v 2.1 4.7 0
v 2.1 4.8 0
v 2.2 2 0
v 2.2 2.2 0
v 2.2 4.7 0
v 2.2 4.9 0
v 0.2 2.9 -0.2
v 0.2 3 -0.2
v 0.2 3.9 -0.2
v 0.2 4 -0.2
v 0.6 2.9 -0.2
v 0.6 3 -0.2
v 0.6 3.9 -0.2
v 0.6 4 -0.2
v 0.6 2.9 -0.3
v 0.6 3 -0.3
v 0.6 3.9 -0.3
v 0.6 4 -0.3
v 0.7 2.9 -0.3
v 0.7 3 -0.3
v 0.7 3.9 -0.3
v 0.7 4 -0.3
v 0.2 2.9 -0.4
v 0.2 3 -0.4
v 0.2 3.9 -0.4
v 0.2 4 -0.4
v 0.6 2.9 -0.4
v 0.6 3 -0.4
v 0.6 3.9 -0.4
v 0.6 4 -0.4
v 0.1 2 -0.6
v 0.1 2.1 -0.6
v 0.1 4.8 -0.6
v 0.1 4.9 -0.6
v 0.2 2.1 -0.6
v 0.2 4.8 -0.6
v 2 2 -0.6
v 2 2.1 -0.6
v 2 4.8 -0.6
v 2 4.9 -0.6
v 2.1 2.1 -0.6
v 2.1 2.2 -0.6
v 2.1 4.7 -0.6
v 2.1 4.8 -0.6
v 2.2 2 -0.6
v 2.2 2.2 -0.6
v 2.2 4.7 -0.6
v 2.2 4.9 -0.6
v 0.1 2 -0.1
v 0.1 2.1 -0.1
v 0.1 4.8 -0.1
v 0.1 4.9 -0.1
v 0.2 2.1 -0.1
v 0.2 4.8 -0.1
v 2 2 -0.1
v 2 2.1 -0.1
v 2 4.8 -0.1
v 2 4.9 -0.1
v 2.1 2.1 -0.1
v 2.1 2.2 -0.1
v 2.1 4.7 -0.1
v 2.1 4.8 -0.1
v 2.2 2 -0.1
v 2.2 2.2 -0.1
v 2.2 4.7 -0.1
v 2.2 4.9 -0.1
v 0.2 2.9 -0.3
v 0.2 3 -0.3
v 0.2 3.9 -0.3
v 0.2 4 -0.3
v 0.6 2.9 -0.3
v 0.6 3 -0.3
v 0.6 3.9 -0.3
v 0.6 4 -0.3
v 0.2 2.9 -0.5
v 0.2 3 -0.5
v 0.2 3.9 -0.5
v 0.2 4 -0.5
v 0.7 2.9 -0.5
v 0.7 3 -0.5
v 0.7 3.9 -0.5
v 0.7 4 -0.5
v 0 2 -0.7
v 0 4.9 -0.7
v 2 2 -0.7
v 2 2.1 -0.7
v 2 4.8 -0.7
v 2 4.9 -0.7
v 2.1 2.1 -0.7
v 2.1 2.2 -0.7
v 2.1 4.7 -0.7
v 2.1 4.8 -0.7
v 2.2 2 -0.7
v 2.2 2.2 -0.7
v 2.2 4.7 -0.7
v 2.2 4.9 -0.7
v 0 2 0
v 2 2 0
v 2.2 2 0
v 0.1 2 -0.1
v 2 2 -0.1
v 2.2 2 -0.1
v 0.1 2 -0.6
v 2 2 -0.6
v 2.2 2 -0.6
v 0 2 -0.7
v 2 2 -0.7
v 2.2 2 -0.7
v 0.1 2.1 -0.1
v 0.2 2.1 -0.1
v 0.1 2.1 -0.6
v 0.2 2.1 -0.6
v 0.2 2.9 -0.2
v 0.6 2.9 -0.2
v 0.2 2.9 -0.3
v 0.6 2.9 -0.3
v 0.7 2.9 -0.3
v 0.2 2.9 -0.4
v 0.6 2.9 -0.4
v 0.2 2.9 -0.5
v 0.7 2.9 -0.5
v 0.2 3.9 -0.2
v 0.6 3.9 -0.2
v 0.2 3.9 -0.3
v 0.6 3.9 -0.3
v 0.7 3.9 -0.3
v 0.2 3.9 -0.4
v 0.6 3.9 -0.4
v 0.2 3.9 -0.5
v 0.7 3.9 -0.5
v 0.2 3 -0.2
v 0.6 3 -0.2
v 0.2 3 -0.3
v 0.6 3 -0.3
v 0.7 3 -0.3
v 0.2 3 -0.4
v 0.6 3 -0.4
v 0.2 3 -0.5
v 0.7 3 -0.5
v 0.2 4 -0.2
v 0.6 4 -0.2
v 0.2 4 -0.3
v 0.6 4 -0.3
v 0.7 4 -0.3
v 0.2 4 -0.4
v 0.6 4 -0.4
v 0.2 4 -0.5
v 0.7 4 -0.5
v 0.1 4.8 -0.1
v 0.2 4.8 -0.1
v 0.1 4.8 -0.6
v 0.2 4.8 -0.6
v 0 4.9 0
v 2 4.9 0
v 2.2 4.9 0
v 0.1 4.9 -0.1
v 2 4.9 -0.1
v 2.2 4.9 -0.1
v 0.1 4.9 -0.6
v 2 4.9 -0.6
v 2.2 4.9 -0.6
v 0 4.9 -0.7
v 2 4.9 -0.7
v 2.2 4.9 -0.7

# faces
f 3/1/1 2/1/1 1/1/1
f 4/1/1 2/1/1 3/1/1
f 5/1/1 3/1/1 1/1/1
f 6/4/1 4/4/1 3/4/1
f 6/1/1 3/1/1 5/1/1
f 7/1/1 2/1/1 4/1/1
f 7/4/1 4/4/1 6/4/1
f 8/1/1 2/1/1 7/1/1
f 9/1/1 5/1/1 1/1/1
f 10/4/1 6/4/1 5/4/1
f 10/1/1 5/1/1 9/1/1
f 11/3/1 7/3/1 6/3/1
f 11/4/1 6/4/1 10/4/1
f 12/4/1 8/4/1 7/4/1
f 12/3/1 7/3/1 11/3/1
f 13/1/1 2/1/1 8/1/1
f 13/4/1 8/4/1 12/4/1
f 14/1/1 2/1/1 13/1/1
f 15/1/1 9/1/1 1/1/1
f 15/4/1 10/4/1 9/4/1
f 16/3/1 12/3/1 11/3/1
f 16/4/1 10/4/1 15/4/1
f 16/3/1 11/3/1 10/3/1
f 16/3/1 13/3/1 12/3/1
f 17/3/1 13/3/1 16/3/1
f 18/3/1 13/3/1 17/3/1
f 19/4/1 14/4/1 13/4/1
f 19/3/1 13/3/1 18/3/1
f 20/1/1 2/1/1 14/1/1
f 20/4/1 14/4/1 19/4/1
f 21/1/1 16/1/1 15/1/1
f 21/4/1 17/4/1 16/4/1
f 22/3/1 18/3/1 17/3/1
f 22/4/1 17/4/1 21/4/1
f 23/4/1 19/4/1 18/4/1
f 23/3/1 18/3/1 22/3/1
f 24/1/1 20/1/1 19/1/1
f 24/4/1 19/4/1 23/4/1
f 25/1/1 22/1/1 21/1/1
f 25/4/1 23/4/1 22/4/1
f 26/1/1 24/1/1 23/1/1
f 26/4/1 23/4/1 25/4/1
f 27/1/1 21/1/1 15/1/1
f 27/1/1 25/1/1 21/1/1
f 27/1/1 26/1/1 25/1/1
f 28/1/1 26/1/1 27/1/1
f 29/1/1 27/1/1 15/1/1
f 29/2/1 28/2/1 27/2/1
f 30/1/1 26/1/1 28/1/1
f 30/2/1 28/2/1 29/2/1
f 31/1/1 29/1/1 15/1/1
f 31/1/1 30/1/1 29/1/1
f 32/1/1 20/1/1 24/1/1
f 32/1/1 30/1/1 31/1/1
f 32/1/1 24/1/1 26/1/1
f 32/1/1 26/1/1 30/1/1
f 33/1/1 31/1/1 15/1/1
f 33/7/1 32/7/1 31/7/1
f 34/1/1 20/1/1 32/1/1
f 34/7/1 32/7/1 33/7/1
f 35/1/1 33/1/1 15/1/1
f 35/1/1 34/1/1 33/1/1
f 36/1/1 34/1/1 35/1/1
f 37/2/1 36/2/1 35/2/1
f 37/1/1 34/1/1 36/1/1
f 38/1/1 34/1/1 37/1/1
f 39/1/1 35/1/1 15/1/1
f 39/2/1 37/2/1 35/2/1
f 39/2/1 38/2/1 37/2/1
f 40/1/1 34/1/1 38/1/1
f 40/2/1 38/2/1 39/2/1
f 41/1/1 15/1/1 1/1/1
f 41/1/1 39/1/1 15/1/1
f 41/1/1 40/1/1 39/1/1
f 42/1/1 20/1/1 34/1/1
f 42/1/1 40/1/1 41/1/1
f 42/1/1 34/1/1 40/1/1
f 42/1/1 2/1/1 20/1/1
f 45/4/1 44/4/1 43/4/1
f 46/4/1 44/4/1 45/4/1
f 49/4/1 48/4/1 47/4/1
f 50/4/1 48/4/1 49/4/1
f 51/1/2 52/1/2 53/1/2
f 53/1/2 52/1/2 54/1/2
f 55/1/2 56/1/2 57/1/2
f 57/1/2 56/1/2 58/1/2
f 59/1/2 60/1/2 61/1/2
f 61/1/2 60/1/2 62/1/2
f 61/4/2 62/4/2 63/4/2
f 63/4/2 62/4/2 64/4/2
f 61/4/2 63/4/2 65/4/2
f 63/6/2 64/6/2 65/6/2
f 64/4/2 62/4/2 66/4/2
f 65/6/2 64/6/2 66/6/2
f 61/4/2 65/4/2 67/4/2
f 65/5/2 66/5/2 67/5/2
f 66/4/2 62/4/2 68/4/2
f 67/5/2 66/5/2 68/5/2
f 59/1/2 61/1/2 69/1/2
f 61/4/2 67/4/2 69/4/2
f 67/4/2 68/4/2 69/4/2
f 69/4/2 68/4/2 70/4/2
f 68/4/2 62/4/2 71/4/2
f 70/4/2 68/4/2 71/4/2
f 62/1/2 60/1/2 72/1/2
f 71/4/2 62/4/2 72/4/2
f 59/1/2 69/1/2 73/1/2
f 70/4/2 71/4/2 74/4/2
f 74/4/2 71/4/2 75/4/2
f 72/1/2 60/1/2 76/1/2
f 74/4/2 75/4/2 77/4/2
f 75/4/2 76/4/2 77/4/2
f 73/4/2 74/4/2 77/4/2
f 77/4/2 76/4/2 78/4/2
f 73/4/2 77/4/2 79/4/2
f 77/6/2 78/6/2 79/6/2
f 78/4/2 76/4/2 80/4/2
f 79/6/2 78/6/2 80/6/2
f 73/4/2 79/4/2 81/4/2
f 79/5/2 80/5/2 81/5/2
f 80/4/2 76/4/2 82/4/2
f 81/5/2 80/5/2 82/5/2
f 73/4/2 81/4/2 83/4/2
f 81/6/2 82/6/2 83/6/2
f 82/4/2 76/4/2 84/4/2
f 83/6/2 82/6/2 84/6/2
f 59/1/2 73/1/2 85/1/2
f 73/4/2 83/4/2 85/4/2
f 83/4/2 84/4/2 85/4/2
f 85/4/2 84/4/2 86/4/2
f 84/4/2 76/4/2 87/4/2
f 86/4/2 84/4/2 87/4/2
f 76/1/2 60/1/2 88/1/2
f 87/4/2 76/4/2 88/4/2
f 59/1/2 85/1/2 89/1/2
f 86/4/2 87/4/2 90/4/2
f 90/4/2 87/4/2 91/4/2
f 88/1/2 60/1/2 92/1/2
f 90/4/2 91/4/2 93/4/2
f 91/4/2 92/4/2 93/4/2
f 89/4/2 90/4/2 93/4/2
f 93/4/2 92/4/2 94/4/2
f 89/4/2 93/4/2 95/4/2
f 93/5/2 94/5/2 95/5/2
f 94/4/2 92/4/2 96/4/2
f 95/5/2 94/5/2 96/5/2
f 89/4/2 95/4/2 97/4/2
f 95/6/2 96/6/2 97/6/2
f 96/4/2 92/4/2 98/4/2
f 97/6/2 96/6/2 98/6/2
f 59/1/2 89/1/2 99/1/2
f 89/4/2 97/4/2 99/4/2
f 97/4/2 98/4/2 99/4/2
f 98/4/2 92/4/2 100/4/2
f 99/4/2 98/4/2 100/4/2
f 92/1/2 60/1/2 100/1/2
f 59/1/2 99/1/2 101/1/2
f 99/1/2 100/1/2 101/1/2
f 100/1/2 60/1/2 102/1/2
f 101/1/2 100/1/2 102/1/2
f 103/4/2 104/4/2 105/4/2
f 105/4/2 104/4/2 106/4/2
f 107/4/2 108/4/2 109/4/2
f 109/4/2 108/4/2 110/4/2
f 111/4/2 112/4/2 113/4/2
f 113/4/2 112/4/2 114/4/2
f 115/4/2 116/4/2 117/4/2
f 117/4/2 116/4/2 118/4/2
f 119/4/2 120/4/2 123/4/2
f 123/4/2 120/4/2 124/4/2
f 121/4/2 122/4/2 125/4/2
f 125/4/2 122/4/2 126/4/2
f 123/1/2 124/1/2 127/1/2
f 127/1/2 124/1/2 128/1/2
f 125/1/2 126/1/2 129/1/2
f 129/1/2 126/1/2 130/1/2
f 127/4/2 128/4/2 131/4/2
f 131/4/2 128/4/2 132/4/2
f 129/4/2 130/4/2 133/4/2
f 133/4/2 130/4/2 134/4/2
f 137/1/3 136/1/3 135/1/3
f 138/1/3 136/1/3 137/1/3
f 139/1/3 136/1/3 138/1/3
f 140/1/3 136/1/3 139/1/3
f 141/4/3 138/4/3 137/4/3
f 141/1/3 139/1/3 138/1/3
f 142/1/3 139/1/3 141/1/3
f 143/1/3 139/1/3 142/1/3
f 144/4/3 140/4/3 139/4/3
f 144/1/3 139/1/3 143/1/3
f 145/4/3 141/4/3 137/4/3
f 145/4/3 142/4/3 141/4/3
f 146/1/3 143/1/3 142/1/3
f 146/4/3 142/4/3 145/4/3
f 147/4/3 144/4/3 143/4/3
f 147/1/3 143/1/3 146/1/3
f 148/4/3 140/4/3 144/4/3
f 148/4/3 144/4/3 147/4/3
f 153/4/3 150/4/3 149/4/3
f 154/4/3 150/4/3 153/4/3
f 155/4/3 152/4/3 151/4/3
f 156/4/3 152/4/3 155/4/3
f 161/4/3 158/4/3 157/4/3
f 162/4/3 158/4/3 161/4/3
f 163/4/3 160/4/3 159/4/3
f 164/4/3 160/4/3 163/4/3
f 169/4/3 166/4/3 165/4/3
f 170/4/3 166/4/3 169/4/3
f 171/4/3 168/4/3 167/4/3
f 172/4/3 168/4/3 171/4/3
f 177/1/3 174/1/3 173/1/3
f 178/1/3 176/1/3 175/1/3
f 179/1/3 177/1/3 173/1/3
f 179/1/3 178/1/3 177/1/3
f 180/1/3 178/1/3 179/1/3
f 181/1/3 176/1/3 178/1/3
f 181/1/3 178/1/3 180/1/3
f 182/1/3 176/1/3 181/1/3
f 183/4/3 180/4/3 179/4/3
f 183/1/3 181/1/3 180/1/3
f 184/1/3 181/1/3 183/1/3
f 185/1/3 181/1/3 184/1/3
f 186/4/3 182/4/3 181/4/3
f 186/1/3 181/1/3 185/1/3
f 187/4/3 183/4/3 179/4/3
f 187/4/3 184/4/3 183/4/3
f 188/1/3 185/1/3 184/1/3
f 188/4/3 184/4/3 187/4/3
f 189/4/3 186/4/3 185/4/3
f 189/1/3 185/1/3 188/1/3
f 190/4/3 182/4/3 186/4/3
f 190/4/3 186/4/3 189/4/3
f 191/1/4 192/1/4 195/1/4
f 193/1/4 194/1/4 196/1/4
f 191/1/4 195/1/4 197/1/4
f 195/1/4 196/1/4 197/1/4
f 197/1/4 196/1/4 198/1/4
f 196/1/4 194/1/4 199/1/4
f 198/1/4 196/1/4 199/1/4
f 199/1/4 194/1/4 200/1/4
f 197/4/4 198/4/4 201/4/4
f 198/1/4 199/1/4 201/1/4
f 201/1/4 199/1/4 202/1/4
f 202/1/4 199/1/4 203/1/4
f 199/4/4 200/4/4 204/4/4
f 203/1/4 199/1/4 204/1/4
f 197/4/4 201/4/4 205/4/4
f 201/4/4 202/4/4 205/4/4
f 202/1/4 203/1/4 206/1/4
f 205/4/4 202/4/4 206/4/4
f 203/4/4 204/4/4 207/4/4
f 206/1/4 203/1/4 207/1/4
f 204/4/4 200/4/4 208/4/4
f 207/4/4 204/4/4 208/4/4
f 209/4/4 210/4/4 213/4/4
f 213/4/4 210/4/4 214/4/4
f 211/4/4 212/4/4 215/4/4
f 215/4/4 212/4/4 216/4/4
f 217/4/4 218/4/4 221/4/4
f 221/4/4 218/4/4 222/4/4
f 219/4/4 220/4/4 223/4/4
f 223/4/4 220/4/4 224/4/4
f 225/1/4 226/1/4 227/1/4
f 227/1/4 226/1/4 228/1/4
f 228/1/4 226/1/4 229/1/4
f 229/1/4 226/1/4 230/1/4
f 227/4/4 228/4/4 231/4/4
f 228/1/4 229/1/4 231/1/4
f 231/1/4 229/1/4 232/1/4
f 232/1/4 229/1/4 233/1/4
f 229/4/4 230/4/4 234/4/4
f 233/1/4 229/1/4 234/1/4
f 227/4/4 231/4/4 235/4/4
f 231/4/4 232/4/4 235/4/4
f 232/1/4 233/1/4 236/1/4
f 235/4/4 232/4/4 236/4/4
f 233/4/4 234/4/4 237/4/4
f 236/1/4 233/1/4 237/1/4
f 234/4/4 230/4/4 238/4/4
f 237/4/4 234/4/4 238/4/4
f 242/1/5 240/1/5 239/1/5
f 243/4/5 241/4/5 240/4/5
f 243/1/5 240/1/5 242/1/5
f 244/4/5 241/4/5 243/4/5
f 245/1/5 242/1/5 239/1/5
f 248/1/5 245/1/5 239/1/5
f 248/1/5 246/1/5 245/1/5
f 249/4/5 247/4/5 246/4/5
f 249/1/5 246/1/5 248/1/5
f 250/4/5 247/4/5 249/4/5
f 253/1/5 252/1/5 251/1/5
f 254/1/5 252/1/5 253/1/5
f 257/4/5 256/4/5 255/4/5
f 258/4/5 256/4/5 257/4/5
f 261/4/5 259/4/5 258/4/5
f 262/4/5 261/4/5 260/4/5
f 263/4/5 259/4/5 261/4/5
f 263/4/5 261/4/5 262/4/5
f 266/4/5 265/4/5 264/4/5
f 267/4/5 265/4/5 266/4/5
f 270/4/5 268/4/5 267/4/5
f 271/4/5 270/4/5 269/4/5
f 272/4/5 268/4/5 270/4/5
f 272/4/5 270/4/5 271/4/5
f 273/4/6 274/4/6 275/4/6
f 275/4/6 274/4/6 276/4/6
f 276/4/6 277/4/6 279/4/6
f 278/4/6 279/4/6 280/4/6
f 279/4/6 277/4/6 281/4/6
f 280/4/6 279/4/6 281/4/6
f 282/4/6 283/4/6 284/4/6
f 284/4/6 283/4/6 285/4/6
f 285/4/6 286/4/6 288/4/6
f 287/4/6 288/4/6 289/4/6
f 288/4/6 286/4/6 290/4/6
f 289/4/6 288/4/6 290/4/6
f 291/1/6 292/1/6 293/1/6
f 293/1/6 292/1/6 294/1/6
f 295/1/6 296/1/6 298/1/6
f 296/4/6 297/4/6 299/4/6
f 298/1/6 296/1/6 299/1/6
f 299/4/6 297/4/6 300/4/6
f 295/1/6 298/1/6 301/1/6
f 295/1/6 301/1/6 304/1/6
f 301/1/6 302/1/6 304/1/6
f 302/4/6 303/4/6 305/4/6
f 304/1/6 302/1/6 305/1/6
f 305/4/6 303/4/6 306/4/6
