# MagicaVoxel @ Ephtracy

# group
o 

# material
mtllib Liasse_de_billets_x4.mtl
usemtl palette

# normals
vn -1 0 0
vn 1 0 0
vn 0 0 1
vn 0 0 -1
vn 0 -1 0
vn 0 1 0

# texcoords
vt 0.373047 0.5
vt 0.404297 0.5
vt 0.556641 0.5
vt 0.572266 0.5
vt 0.591797 0.5
vt 0.650391 0.5
vt 0.771484 0.5
vt 0.791016 0.5

# verts
v 0 2 0
v 0 2 -0.5
v 0 2 -0.6
v 0 2 -1.1
v 0 2.4 0
v 0 2.4 -0.5
v 0 2.4 -0.6
v 0 2.4 -1.1
v 0.5 2 0
v 0.5 2 -0.5
v 0.5 2 -0.6
v 0.5 2 -1.1
v 0.5 2.4 0
v 0.5 2.4 -0.5
v 0.5 2.4 -0.6
v 0.5 2.4 -1.1
v 0 2 0
v 0 2.4 0
v 0.5 2 0
v 0.5 2.4 0
v 0 2 -1.1
v 0 2.4 -1.1
v 0.5 2 -1.1
v 0.5 2.4 -1.1
v 0 2 0
v 0.5 2 0
v 0.1 2 -0.1
v 0.2 2 -0.1
v 0.3 2 -0.1
v 0.4 2 -0.1
v 0.1 2 -0.2
v 0.2 2 -0.2
v 0.3 2 -0.2
v 0.1 2 -0.3
v 0.2 2 -0.3
v 0.3 2 -0.3
v 0.4 2 -0.3
v 0.1 2 -0.4
v 0.2 2 -0.4
v 0.3 2 -0.4
v 0.4 2 -0.4
v 0 2 -0.5
v 0.1 2 -0.5
v 0.3 2 -0.5
v 0.4 2 -0.5
v 0.5 2 -0.5
v 0 2 -0.6
v 0.1 2 -0.6
v 0.2 2 -0.6
v 0.4 2 -0.6
v 0.5 2 -0.6
v 0.1 2 -0.7
v 0.2 2 -0.7
v 0.4 2 -0.7
v 0.1 2 -0.8
v 0.2 2 -0.8
v 0.3 2 -0.8
v 0.4 2 -0.8
v 0.2 2 -0.9
v 0.3 2 -0.9
v 0.4 2 -0.9
v 0.1 2 -1
v 0.2 2 -1
v 0.4 2 -1
v 0 2 -1.1
v 0.5 2 -1.1
v 0 2.4 0
v 0.5 2.4 0
v 0.1 2.4 -0.1
v 0.2 2.4 -0.1
v 0.3 2.4 -0.1
v 0.4 2.4 -0.1
v 0.1 2.4 -0.2
v 0.2 2.4 -0.2
v 0.3 2.4 -0.2
v 0.1 2.4 -0.3
v 0.2 2.4 -0.3
v 0.3 2.4 -0.3
v 0.4 2.4 -0.3
v 0.1 2.4 -0.4
v 0.2 2.4 -0.4
v 0.3 2.4 -0.4
v 0.4 2.4 -0.4
v 0 2.4 -0.5
v 0.1 2.4 -0.5
v 0.2 2.4 -0.5
v 0.3 2.4 -0.5
v 0.4 2.4 -0.5
v 0.5 2.4 -0.5
v 0 2.4 -0.6
v 0.1 2.4 -0.6
v 0.2 2.4 -0.6
v 0.3 2.4 -0.6
v 0.4 2.4 -0.6
v 0.5 2.4 -0.6
v 0.1 2.4 -0.7
v 0.2 2.4 -0.7
v 0.4 2.4 -0.7
v 0.1 2.4 -0.8
v 0.2 2.4 -0.8
v 0.3 2.4 -0.8
v 0.4 2.4 -0.8
v 0.2 2.4 -0.9
v 0.3 2.4 -0.9
v 0.4 2.4 -0.9
v 0.1 2.4 -1
v 0.2 2.4 -1
v 0.4 2.4 -1
v 0 2.4 -1.1
v 0.5 2.4 -1.1

# faces
f 5/3/1 2/3/1 1/3/1
f 6/7/1 3/7/1 2/7/1
f 6/3/1 2/3/1 5/3/1
f 7/3/1 4/3/1 3/3/1
f 7/7/1 3/7/1 6/7/1
f 8/3/1 4/3/1 7/3/1
f 9/3/2 10/3/2 13/3/2
f 10/7/2 11/7/2 14/7/2
f 13/3/2 10/3/2 14/3/2
f 11/3/2 12/3/2 15/3/2
f 14/7/2 11/7/2 15/7/2
f 15/3/2 12/3/2 16/3/2
f 19/3/3 18/3/3 17/3/3
f 20/3/3 18/3/3 19/3/3
f 21/3/4 22/3/4 23/3/4
f 23/3/4 22/3/4 24/3/4
f 27/3/5 26/3/5 25/3/5
f 28/3/5 26/3/5 27/3/5
f 29/3/5 26/3/5 28/3/5
f 30/3/5 26/3/5 29/3/5
f 31/3/5 27/3/5 25/3/5
f 31/5/5 28/5/5 27/5/5
f 32/4/5 29/4/5 28/4/5
f 32/5/5 28/5/5 31/5/5
f 33/5/5 30/5/5 29/5/5
f 33/4/5 29/4/5 32/4/5
f 34/4/5 32/4/5 31/4/5
f 34/3/5 31/3/5 25/3/5
f 35/5/5 33/5/5 32/5/5
f 35/4/5 32/4/5 34/4/5
f 36/5/5 30/5/5 33/5/5
f 36/5/5 33/5/5 35/5/5
f 37/3/5 26/3/5 30/3/5
f 37/5/5 30/5/5 36/5/5
f 38/6/5 35/6/5 34/6/5
f 38/3/5 34/3/5 25/3/5
f 39/5/5 36/5/5 35/5/5
f 39/6/5 35/6/5 38/6/5
f 40/6/5 37/6/5 36/6/5
f 40/5/5 36/5/5 39/5/5
f 41/3/5 26/3/5 37/3/5
f 41/6/5 37/6/5 40/6/5
f 42/3/5 38/3/5 25/3/5
f 43/4/5 40/4/5 39/4/5
f 43/3/5 38/3/5 42/3/5
f 43/4/5 39/4/5 38/4/5
f 44/5/5 41/5/5 40/5/5
f 44/4/5 40/4/5 43/4/5
f 45/3/5 26/3/5 41/3/5
f 45/5/5 41/5/5 44/5/5
f 46/3/5 26/3/5 45/3/5
f 47/7/5 44/7/5 43/7/5
f 47/7/5 43/7/5 42/7/5
f 47/7/5 46/7/5 45/7/5
f 47/7/5 45/7/5 44/7/5
f 48/7/5 46/7/5 47/7/5
f 49/7/5 46/7/5 48/7/5
f 50/7/5 46/7/5 49/7/5
f 51/7/5 46/7/5 50/7/5
f 52/3/5 48/3/5 47/3/5
f 52/5/5 49/5/5 48/5/5
f 53/4/5 50/4/5 49/4/5
f 53/5/5 49/5/5 52/5/5
f 54/3/5 51/3/5 50/3/5
f 54/4/5 50/4/5 53/4/5
f 55/4/5 53/4/5 52/4/5
f 55/3/5 52/3/5 47/3/5
f 56/5/5 54/5/5 53/5/5
f 56/4/5 53/4/5 55/4/5
f 57/5/5 54/5/5 56/5/5
f 58/3/5 51/3/5 54/3/5
f 58/5/5 54/5/5 57/5/5
f 59/6/5 57/6/5 56/6/5
f 59/6/5 56/6/5 55/6/5
f 60/4/5 58/4/5 57/4/5
f 60/6/5 57/6/5 59/6/5
f 61/3/5 51/3/5 58/3/5
f 61/4/5 58/4/5 60/4/5
f 62/3/5 55/3/5 47/3/5
f 62/6/5 59/6/5 55/6/5
f 63/5/5 60/5/5 59/5/5
f 63/6/5 59/6/5 62/6/5
f 63/5/5 61/5/5 60/5/5
f 64/3/5 51/3/5 61/3/5
f 64/5/5 61/5/5 63/5/5
f 65/3/5 62/3/5 47/3/5
f 65/3/5 63/3/5 62/3/5
f 65/3/5 64/3/5 63/3/5
f 66/3/5 51/3/5 64/3/5
f 66/3/5 64/3/5 65/3/5
f 67/3/6 68/3/6 69/3/6
f 69/3/6 68/3/6 70/3/6
f 70/3/6 68/3/6 71/3/6
f 71/3/6 68/3/6 72/3/6
f 67/3/6 69/3/6 73/3/6
f 69/5/6 70/5/6 73/5/6
f 70/4/6 71/4/6 74/4/6
f 73/5/6 70/5/6 74/5/6
f 71/5/6 72/5/6 75/5/6
f 74/4/6 71/4/6 75/4/6
f 73/4/6 74/4/6 76/4/6
f 67/3/6 73/3/6 76/3/6
f 74/5/6 75/5/6 77/5/6
f 76/4/6 74/4/6 77/4/6
f 75/5/6 72/5/6 78/5/6
f 77/5/6 75/5/6 78/5/6
f 72/3/6 68/3/6 79/3/6
f 78/5/6 72/5/6 79/5/6
f 76/6/6 77/6/6 80/6/6
f 67/3/6 76/3/6 80/3/6
f 77/5/6 78/5/6 81/5/6
f 80/6/6 77/6/6 81/6/6
f 78/6/6 79/6/6 82/6/6
f 81/5/6 78/5/6 82/5/6
f 79/3/6 68/3/6 83/3/6
f 82/6/6 79/6/6 83/6/6
f 67/3/6 80/3/6 84/3/6
f 81/4/6 82/4/6 85/4/6
f 84/3/6 80/3/6 85/3/6
f 80/4/6 81/4/6 85/4/6
f 85/4/6 82/4/6 86/4/6
f 82/5/6 83/5/6 87/5/6
f 86/4/6 82/4/6 87/4/6
f 83/3/6 68/3/6 88/3/6
f 87/5/6 83/5/6 88/5/6
f 88/3/6 68/3/6 89/3/6
f 84/7/6 85/7/6 90/7/6
f 85/8/6 86/8/6 91/8/6
f 90/7/6 85/7/6 91/7/6
f 86/7/6 87/7/6 92/7/6
f 91/8/6 86/8/6 92/8/6
f 87/8/6 88/8/6 93/8/6
f 92/7/6 87/7/6 93/7/6
f 88/7/6 89/7/6 94/7/6
f 93/8/6 88/8/6 94/8/6
f 94/7/6 89/7/6 95/7/6
f 90/3/6 91/3/6 96/3/6
f 91/5/6 92/5/6 96/5/6
f 92/4/6 93/4/6 97/4/6
f 96/5/6 92/5/6 97/5/6
f 93/4/6 94/4/6 97/4/6
f 94/3/6 95/3/6 98/3/6
f 97/4/6 94/4/6 98/4/6
f 96/4/6 97/4/6 99/4/6
f 90/3/6 96/3/6 99/3/6
f 97/5/6 98/5/6 100/5/6
f 99/4/6 97/4/6 100/4/6
f 100/5/6 98/5/6 101/5/6
f 98/3/6 95/3/6 102/3/6
f 101/5/6 98/5/6 102/5/6
f 100/6/6 101/6/6 103/6/6
f 99/6/6 100/6/6 103/6/6
f 101/4/6 102/4/6 104/4/6
f 103/6/6 101/6/6 104/6/6
f 102/3/6 95/3/6 105/3/6
f 104/4/6 102/4/6 105/4/6
f 90/3/6 99/3/6 106/3/6
f 99/6/6 103/6/6 106/6/6
f 103/5/6 104/5/6 107/5/6
f 106/6/6 103/6/6 107/6/6
f 104/5/6 105/5/6 107/5/6
f 105/3/6 95/3/6 108/3/6
f 107/5/6 105/5/6 108/5/6
f 90/3/6 106/3/6 109/3/6
f 106/3/6 107/3/6 109/3/6
f 107/3/6 108/3/6 109/3/6
f 108/3/6 95/3/6 110/3/6
f 109/3/6 108/3/6 110/3/6
