# MagicaVoxel @ Ephtracy

# group
o 

# material
mtllib Burger.mtl
usemtl palette

# normals
vn -1 0 0
vn 1 0 0
vn 0 0 1
vn 0 0 -1
vn 0 -1 0
vn 0 1 0

# texcoords
vt 0.0332031 0.5
vt 0.146484 0.5
vt 0.181641 0.5
vt 0.298828 0.5
vt 0.314453 0.5
vt 0.427734 0.5
vt 0.533203 0.5
vt 0.583984 0.5
vt 0.771484 0.5
vt 0.841797 0.5

# verts
v 0 2 -0.1
v 0 2 -0.6
v 0 2.1 -0.1
v 0 2.1 -0.2
v 0 2.1 -0.4
v 0 2.1 -0.6
v 0 2.2 -0.2
v 0 2.2 -0.4
v 0 2.3 -0.1
v 0 2.3 -0.6
v 0 2.4 -0.1
v 0 2.4 -0.2
v 0 2.4 -0.5
v 0 2.4 -0.6
v 0 2.5 -0.2
v 0 2.5 -0.5
v 0.1 2 0
v 0.1 2 -0.1
v 0.1 2 -0.6
v 0.1 2 -0.7
v 0.1 2.1 0
v 0.1 2.1 -0.1
v 0.1 2.1 -0.2
v 0.1 2.1 -0.4
v 0.1 2.1 -0.6
v 0.1 2.1 -0.7
v 0.1 2.2 -0.1
v 0.1 2.2 -0.2
v 0.1 2.2 -0.4
v 0.1 2.2 -0.6
v 0.1 2.3 0
v 0.1 2.3 -0.1
v 0.1 2.3 -0.6
v 0.1 2.3 -0.7
v 0.1 2.4 0
v 0.1 2.4 -0.1
v 0.1 2.4 -0.2
v 0.1 2.4 -0.5
v 0.1 2.4 -0.6
v 0.1 2.4 -0.7
v 0.1 2.5 -0.1
v 0.1 2.5 -0.2
v 0.1 2.5 -0.5
v 0.1 2.5 -0.6
v 0.2 2.1 0
v 0.2 2.1 -0.1
v 0.2 2.2 -0.1
v 0.2 2.3 0
v 0.2 2.3 -0.1
v 0.2 2.4 0
v 0.2 2.4 -0.1
v 0.2 2.4 -0.6
v 0.2 2.4 -0.7
v 0.2 2.5 0
v 0.2 2.5 -0.1
v 0.2 2.5 -0.6
v 0.2 2.5 -0.7
v 0.3 2.1 -0.6
v 0.3 2.1 -0.7
v 0.3 2.2 -0.6
v 0.3 2.2 -0.7
v 0.4 2.1 0
v 0.4 2.1 -0.1
v 0.4 2.2 0
v 0.4 2.2 -0.1
v 0.3 2.1 0
v 0.3 2.1 -0.1
v 0.3 2.2 -0.1
v 0.3 2.3 0
v 0.3 2.3 -0.1
v 0.4 2.1 -0.6
v 0.4 2.1 -0.7
v 0.4 2.2 -0.6
v 0.4 2.2 -0.7
v 0.5 2.1 0
v 0.5 2.1 -0.1
v 0.5 2.2 0
v 0.5 2.2 -0.1
v 0.5 2.4 0
v 0.5 2.4 -0.1
v 0.5 2.4 -0.6
v 0.5 2.4 -0.7
v 0.5 2.5 0
v 0.5 2.5 -0.1
v 0.5 2.5 -0.6
v 0.5 2.5 -0.7
v 0.6 2 0
v 0.6 2 -0.1
v 0.6 2 -0.6
v 0.6 2 -0.7
v 0.6 2.1 0
v 0.6 2.1 -0.1
v 0.6 2.1 -0.2
v 0.6 2.1 -0.3
v 0.6 2.1 -0.4
v 0.6 2.1 -0.5
v 0.6 2.1 -0.6
v 0.6 2.1 -0.7
v 0.6 2.2 -0.1
v 0.6 2.2 -0.2
v 0.6 2.2 -0.3
v 0.6 2.2 -0.4
v 0.6 2.2 -0.5
v 0.6 2.2 -0.6
v 0.6 2.3 0
v 0.6 2.3 -0.1
v 0.6 2.3 -0.4
v 0.6 2.3 -0.5
v 0.6 2.3 -0.6
v 0.6 2.3 -0.7
v 0.6 2.4 0
v 0.6 2.4 -0.1
v 0.6 2.4 -0.2
v 0.6 2.4 -0.5
v 0.6 2.4 -0.6
v 0.6 2.4 -0.7
v 0.6 2.5 -0.1
v 0.6 2.5 -0.2
v 0.6 2.5 -0.5
v 0.6 2.5 -0.6
v 0.7 2 -0.1
v 0.7 2 -0.6
v 0.7 2.1 -0.1
v 0.7 2.1 -0.2
v 0.7 2.1 -0.3
v 0.7 2.1 -0.4
v 0.7 2.1 -0.5
v 0.7 2.1 -0.6
v 0.7 2.2 -0.2
v 0.7 2.2 -0.3
v 0.7 2.2 -0.4
v 0.7 2.2 -0.5
v 0.7 2.3 -0.1
v 0.7 2.3 -0.6
v 0.7 2.4 -0.1
v 0.7 2.4 -0.2
v 0.7 2.4 -0.5
v 0.7 2.4 -0.6
v 0.7 2.5 -0.2
v 0.7 2.5 -0.5
v 0.1 2 0
v 0.1 2.1 0
v 0.1 2.3 0
v 0.1 2.4 0
v 0.2 2.1 0
v 0.2 2.3 0
v 0.2 2.4 0
v 0.2 2.5 0
v 0.3 2.1 0
v 0.3 2.3 0
v 0.4 2.1 0
v 0.4 2.2 0
v 0.5 2.1 0
v 0.5 2.2 0
v 0.5 2.4 0
v 0.5 2.5 0
v 0.6 2 0
v 0.6 2.1 0
v 0.6 2.3 0
v 0.6 2.4 0
v 0 2 -0.1
v 0 2.1 -0.1
v 0 2.3 -0.1
v 0 2.4 -0.1
v 0.1 2 -0.1
v 0.1 2.1 -0.1
v 0.1 2.2 -0.1
v 0.1 2.3 -0.1
v 0.1 2.4 -0.1
v 0.1 2.5 -0.1
v 0.2 2.1 -0.1
v 0.2 2.2 -0.1
v 0.2 2.3 -0.1
v 0.2 2.4 -0.1
v 0.2 2.5 -0.1
v 0.3 2.1 -0.1
v 0.3 2.2 -0.1
v 0.3 2.3 -0.1
v 0.4 2.1 -0.1
v 0.4 2.2 -0.1
v 0.5 2.1 -0.1
v 0.5 2.2 -0.1
v 0.5 2.4 -0.1
v 0.5 2.5 -0.1
v 0.6 2 -0.1
v 0.6 2.1 -0.1
v 0.6 2.2 -0.1
v 0.6 2.3 -0.1
v 0.6 2.4 -0.1
v 0.6 2.5 -0.1
v 0.7 2 -0.1
v 0.7 2.1 -0.1
v 0.7 2.3 -0.1
v 0.7 2.4 -0.1
v 0 2.1 -0.2
v 0 2.2 -0.2
v 0 2.4 -0.2
v 0 2.5 -0.2
v 0.1 2.1 -0.2
v 0.1 2.2 -0.2
v 0.1 2.4 -0.2
v 0.1 2.5 -0.2
v 0.6 2.1 -0.2
v 0.6 2.2 -0.2
v 0.6 2.4 -0.2
v 0.6 2.5 -0.2
v 0.7 2.1 -0.2
v 0.7 2.2 -0.2
v 0.7 2.4 -0.2
v 0.7 2.5 -0.2
v 0.6 2.1 -0.4
v 0.6 2.2 -0.4
v 0.7 2.1 -0.4
v 0.7 2.2 -0.4
v 0.6 2.1 -0.3
v 0.6 2.2 -0.3
v 0.7 2.1 -0.3
v 0.7 2.2 -0.3
v 0 2.1 -0.4
v 0 2.2 -0.4
v 0.1 2.1 -0.4
v 0.1 2.2 -0.4
v 0 2.4 -0.5
v 0 2.5 -0.5
v 0.1 2.4 -0.5
v 0.1 2.5 -0.5
v 0.6 2.1 -0.5
v 0.6 2.2 -0.5
v 0.6 2.4 -0.5
v 0.6 2.5 -0.5
v 0.7 2.1 -0.5
v 0.7 2.2 -0.5
v 0.7 2.4 -0.5
v 0.7 2.5 -0.5
v 0 2 -0.6
v 0 2.1 -0.6
v 0 2.3 -0.6
v 0 2.4 -0.6
v 0.1 2 -0.6
v 0.1 2.1 -0.6
v 0.1 2.2 -0.6
v 0.1 2.3 -0.6
v 0.1 2.4 -0.6
v 0.1 2.5 -0.6
v 0.2 2.4 -0.6
v 0.2 2.5 -0.6
v 0.3 2.1 -0.6
v 0.3 2.2 -0.6
v 0.4 2.1 -0.6
v 0.4 2.2 -0.6
v 0.5 2.4 -0.6
v 0.5 2.5 -0.6
v 0.6 2 -0.6
v 0.6 2.1 -0.6
v 0.6 2.2 -0.6
v 0.6 2.3 -0.6
v 0.6 2.4 -0.6
v 0.6 2.5 -0.6
v 0.7 2 -0.6
v 0.7 2.1 -0.6
v 0.7 2.3 -0.6
v 0.7 2.4 -0.6
v 0.1 2 -0.7
v 0.1 2.1 -0.7
v 0.1 2.3 -0.7
v 0.1 2.4 -0.7
v 0.2 2.4 -0.7
v 0.2 2.5 -0.7
v 0.3 2.1 -0.7
v 0.3 2.2 -0.7
v 0.4 2.1 -0.7
v 0.4 2.2 -0.7
v 0.5 2.4 -0.7
v 0.5 2.5 -0.7
v 0.6 2 -0.7
v 0.6 2.1 -0.7
v 0.6 2.3 -0.7
v 0.6 2.4 -0.7
v 0.1 2 0
v 0.6 2 0
v 0 2 -0.1
v 0.1 2 -0.1
v 0.6 2 -0.1
v 0.7 2 -0.1
v 0 2 -0.6
v 0.1 2 -0.6
v 0.6 2 -0.6
v 0.7 2 -0.6
v 0.1 2 -0.7
v 0.6 2 -0.7
v 0.1 2.3 0
v 0.2 2.3 0
v 0.3 2.3 0
v 0.6 2.3 0
v 0 2.3 -0.1
v 0.1 2.3 -0.1
v 0.2 2.3 -0.1
v 0.3 2.3 -0.1
v 0.6 2.3 -0.1
v 0.7 2.3 -0.1
v 0.6 2.3 -0.4
v 0.6 2.3 -0.5
v 0 2.3 -0.6
v 0.1 2.3 -0.6
v 0.6 2.3 -0.6
v 0.7 2.3 -0.6
v 0.1 2.3 -0.7
v 0.6 2.3 -0.7
v 0.1 2.1 0
v 0.2 2.1 0
v 0.3 2.1 0
v 0.4 2.1 0
v 0.5 2.1 0
v 0.6 2.1 0
v 0 2.1 -0.1
v 0.1 2.1 -0.1
v 0.2 2.1 -0.1
v 0.3 2.1 -0.1
v 0.4 2.1 -0.1
v 0.5 2.1 -0.1
v 0.6 2.1 -0.1
v 0.7 2.1 -0.1
v 0 2.1 -0.2
v 0.1 2.1 -0.2
v 0.6 2.1 -0.2
v 0.7 2.1 -0.2
v 0.6 2.1 -0.3
v 0.7 2.1 -0.3
v 0 2.1 -0.4
v 0.1 2.1 -0.4
v 0.6 2.1 -0.4
v 0.7 2.1 -0.4
v 0.6 2.1 -0.5
v 0.7 2.1 -0.5
v 0 2.1 -0.6
v 0.1 2.1 -0.6
v 0.3 2.1 -0.6
v 0.4 2.1 -0.6
v 0.6 2.1 -0.6
v 0.7 2.1 -0.6
v 0.1 2.1 -0.7
v 0.3 2.1 -0.7
v 0.4 2.1 -0.7
v 0.6 2.1 -0.7
v 0.4 2.2 0
v 0.5 2.2 0
v 0.4 2.2 -0.1
v 0.5 2.2 -0.1
v 0 2.2 -0.2
v 0.1 2.2 -0.2
v 0.6 2.2 -0.2
v 0.7 2.2 -0.2
v 0.6 2.2 -0.3
v 0.7 2.2 -0.3
v 0 2.2 -0.4
v 0.1 2.2 -0.4
v 0.6 2.2 -0.4
v 0.7 2.2 -0.4
v 0.6 2.2 -0.5
v 0.7 2.2 -0.5
v 0.3 2.2 -0.6
v 0.4 2.2 -0.6
v 0.3 2.2 -0.7
v 0.4 2.2 -0.7
v 0.1 2.4 0
v 0.2 2.4 0
v 0.5 2.4 0
v 0.6 2.4 0
v 0 2.4 -0.1
v 0.1 2.4 -0.1
v 0.2 2.4 -0.1
v 0.5 2.4 -0.1
v 0.6 2.4 -0.1
v 0.7 2.4 -0.1
v 0 2.4 -0.2
v 0.1 2.4 -0.2
v 0.6 2.4 -0.2
v 0.7 2.4 -0.2
v 0 2.4 -0.5
v 0.1 2.4 -0.5
v 0.6 2.4 -0.5
v 0.7 2.4 -0.5
v 0 2.4 -0.6
v 0.1 2.4 -0.6
v 0.2 2.4 -0.6
v 0.5 2.4 -0.6
v 0.6 2.4 -0.6
v 0.7 2.4 -0.6
v 0.1 2.4 -0.7
v 0.2 2.4 -0.7
v 0.5 2.4 -0.7
v 0.6 2.4 -0.7
v 0.2 2.5 0
v 0.5 2.5 0
v 0.1 2.5 -0.1
v 0.2 2.5 -0.1
v 0.3 2.5 -0.1
v 0.4 2.5 -0.1
v 0.5 2.5 -0.1
v 0.6 2.5 -0.1
v 0 2.5 -0.2
v 0.1 2.5 -0.2
v 0.2 2.5 -0.2
v 0.3 2.5 -0.2
v 0.4 2.5 -0.2
v 0.5 2.5 -0.2
v 0.6 2.5 -0.2
v 0.7 2.5 -0.2
v 0.1 2.5 -0.3
v 0.2 2.5 -0.3
v 0.3 2.5 -0.3
v 0.4 2.5 -0.3
v 0.5 2.5 -0.3
v 0.6 2.5 -0.3
v 0.2 2.5 -0.4
v 0.3 2.5 -0.4
v 0.4 2.5 -0.4
v 0.5 2.5 -0.4
v 0.6 2.5 -0.4
v 0 2.5 -0.5
v 0.1 2.5 -0.5
v 0.2 2.5 -0.5
v 0.3 2.5 -0.5
v 0.4 2.5 -0.5
v 0.5 2.5 -0.5
v 0.6 2.5 -0.5
v 0.7 2.5 -0.5
v 0.1 2.5 -0.6
v 0.2 2.5 -0.6
v 0.3 2.5 -0.6
v 0.4 2.5 -0.6
v 0.5 2.5 -0.6
v 0.6 2.5 -0.6
v 0.2 2.5 -0.7
v 0.5 2.5 -0.7

# faces
f 3/5/1 2/5/1 1/5/1
f 4/5/1 2/5/1 3/5/1
f 5/5/1 2/5/1 4/5/1
f 6/5/1 2/5/1 5/5/1
f 7/6/1 5/6/1 4/6/1
f 8/6/1 5/6/1 7/6/1
f 11/5/1 10/5/1 9/5/1
f 12/5/1 10/5/1 11/5/1
f 13/5/1 10/5/1 12/5/1
f 14/5/1 10/5/1 13/5/1
f 15/5/1 13/5/1 12/5/1
f 16/5/1 13/5/1 15/5/1
f 21/5/1 18/5/1 17/5/1
f 22/5/1 18/5/1 21/5/1
f 25/5/1 20/5/1 19/5/1
f 26/5/1 20/5/1 25/5/1
f 27/3/1 23/3/1 22/3/1
f 28/3/1 23/3/1 27/3/1
f 29/3/1 25/3/1 24/3/1
f 30/3/1 25/3/1 29/3/1
f 32/8/1 28/8/1 27/8/1
f 32/8/1 29/8/1 28/8/1
f 32/8/1 30/8/1 29/8/1
f 33/8/1 30/8/1 32/8/1
f 35/5/1 32/5/1 31/5/1
f 36/5/1 32/5/1 35/5/1
f 39/5/1 34/5/1 33/5/1
f 40/5/1 34/5/1 39/5/1
f 41/5/1 37/5/1 36/5/1
f 42/5/1 37/5/1 41/5/1
f 43/5/1 39/5/1 38/5/1
f 44/5/1 39/5/1 43/5/1
f 47/2/1 46/2/1 45/2/1
f 48/2/1 47/2/1 45/2/1
f 49/2/1 47/2/1 48/2/1
f 54/5/1 51/5/1 50/5/1
f 55/5/1 51/5/1 54/5/1
f 56/5/1 53/5/1 52/5/1
f 57/5/1 53/5/1 56/5/1
f 60/2/1 59/2/1 58/2/1
f 61/2/1 59/2/1 60/2/1
f 64/6/1 63/6/1 62/6/1
f 65/6/1 63/6/1 64/6/1
f 66/2/2 67/2/2 68/2/2
f 66/2/2 68/2/2 69/2/2
f 69/2/2 68/2/2 70/2/2
f 71/2/2 72/2/2 73/2/2
f 73/2/2 72/2/2 74/2/2
f 75/6/2 76/6/2 77/6/2
f 77/6/2 76/6/2 78/6/2
f 79/5/2 80/5/2 83/5/2
f 83/5/2 80/5/2 84/5/2
f 81/5/2 82/5/2 85/5/2
f 85/5/2 82/5/2 86/5/2
f 87/5/2 88/5/2 91/5/2
f 91/5/2 88/5/2 92/5/2
f 89/5/2 90/5/2 97/5/2
f 97/5/2 90/5/2 98/5/2
f 92/3/2 93/3/2 99/3/2
f 99/3/2 93/3/2 100/3/2
f 94/3/2 95/3/2 101/3/2
f 101/3/2 95/3/2 102/3/2
f 96/3/2 97/3/2 103/3/2
f 103/3/2 97/3/2 104/3/2
f 99/8/2 100/8/2 106/8/2
f 101/8/2 102/8/2 106/8/2
f 100/8/2 101/8/2 106/8/2
f 102/6/2 103/6/2 107/6/2
f 106/8/2 102/8/2 107/8/2
f 103/8/2 104/8/2 108/8/2
f 107/6/2 103/6/2 108/6/2
f 108/8/2 104/8/2 109/8/2
f 105/5/2 106/5/2 111/5/2
f 111/5/2 106/5/2 112/5/2
f 109/5/2 110/5/2 115/5/2
f 115/5/2 110/5/2 116/5/2
f 112/5/2 113/5/2 117/5/2
f 117/5/2 113/5/2 118/5/2
f 114/5/2 115/5/2 119/5/2
f 119/5/2 115/5/2 120/5/2
f 121/5/2 122/5/2 123/5/2
f 123/5/2 122/5/2 124/5/2
f 124/5/2 122/5/2 125/5/2
f 125/5/2 122/5/2 126/5/2
f 126/5/2 122/5/2 127/5/2
f 127/5/2 122/5/2 128/5/2
f 124/2/2 125/2/2 129/2/2
f 129/2/2 125/2/2 130/2/2
f 126/6/2 127/6/2 131/6/2
f 131/6/2 127/6/2 132/6/2
f 133/5/2 134/5/2 135/5/2
f 135/5/2 134/5/2 136/5/2
f 136/5/2 134/5/2 137/5/2
f 137/5/2 134/5/2 138/5/2
f 136/5/2 137/5/2 139/5/2
f 139/5/2 137/5/2 140/5/2
f 145/5/3 142/5/3 141/5/3
f 146/5/3 144/5/3 143/5/3
f 147/5/3 144/5/3 146/5/3
f 149/5/3 145/5/3 141/5/3
f 149/2/3 146/2/3 145/2/3
f 150/5/3 148/5/3 147/5/3
f 150/2/3 146/2/3 149/2/3
f 150/5/3 147/5/3 146/5/3
f 151/5/3 149/5/3 141/5/3
f 153/5/3 151/5/3 141/5/3
f 153/6/3 152/6/3 151/6/3
f 154/6/3 152/6/3 153/6/3
f 155/5/3 148/5/3 150/5/3
f 156/5/3 148/5/3 155/5/3
f 157/5/3 153/5/3 141/5/3
f 158/5/3 153/5/3 157/5/3
f 159/5/3 155/5/3 150/5/3
f 160/5/3 155/5/3 159/5/3
f 165/5/3 162/5/3 161/5/3
f 166/5/3 162/5/3 165/5/3
f 168/5/3 164/5/3 163/5/3
f 169/5/3 164/5/3 168/5/3
f 171/3/3 167/3/3 166/3/3
f 172/8/3 168/8/3 167/8/3
f 172/3/3 167/3/3 171/3/3
f 173/8/3 168/8/3 172/8/3
f 174/5/3 170/5/3 169/5/3
f 175/5/3 170/5/3 174/5/3
f 179/3/3 177/3/3 176/3/3
f 180/8/3 178/8/3 177/8/3
f 180/3/3 177/3/3 179/3/3
f 182/8/3 178/8/3 180/8/3
f 186/3/3 182/3/3 181/3/3
f 187/8/3 178/8/3 182/8/3
f 187/3/3 182/3/3 186/3/3
f 188/8/3 178/8/3 187/8/3
f 189/5/3 184/5/3 183/5/3
f 190/5/3 184/5/3 189/5/3
f 191/5/3 186/5/3 185/5/3
f 192/5/3 186/5/3 191/5/3
f 193/5/3 189/5/3 188/5/3
f 194/5/3 189/5/3 193/5/3
f 199/6/3 196/6/3 195/6/3
f 200/6/3 196/6/3 199/6/3
f 201/5/3 198/5/3 197/5/3
f 202/5/3 198/5/3 201/5/3
f 207/2/3 204/2/3 203/2/3
f 208/2/3 204/2/3 207/2/3
f 209/5/3 206/5/3 205/5/3
f 210/5/3 206/5/3 209/5/3
f 213/6/3 212/6/3 211/6/3
f 214/6/3 212/6/3 213/6/3
f 215/2/4 216/2/4 217/2/4
f 217/2/4 216/2/4 218/2/4
f 219/6/4 220/6/4 221/6/4
f 221/6/4 220/6/4 222/6/4
f 223/5/4 224/5/4 225/5/4
f 225/5/4 224/5/4 226/5/4
f 227/6/4 228/6/4 231/6/4
f 231/6/4 228/6/4 232/6/4
f 229/5/4 230/5/4 233/5/4
f 233/5/4 230/5/4 234/5/4
f 235/5/4 236/5/4 239/5/4
f 239/5/4 236/5/4 240/5/4
f 237/5/4 238/5/4 242/5/4
f 242/5/4 238/5/4 243/5/4
f 243/5/4 244/5/4 245/5/4
f 245/5/4 244/5/4 246/5/4
f 240/3/4 241/3/4 247/3/4
f 241/8/4 242/8/4 248/8/4
f 247/3/4 241/3/4 248/3/4
f 248/8/4 242/8/4 250/8/4
f 249/3/4 250/3/4 254/3/4
f 250/8/4 242/8/4 255/8/4
f 254/3/4 250/3/4 255/3/4
f 255/8/4 242/8/4 256/8/4
f 251/5/4 252/5/4 257/5/4
f 257/5/4 252/5/4 258/5/4
f 253/5/4 254/5/4 259/5/4
f 259/5/4 254/5/4 260/5/4
f 256/5/4 257/5/4 261/5/4
f 261/5/4 257/5/4 262/5/4
f 265/5/4 266/5/4 267/5/4
f 263/5/4 264/5/4 269/5/4
f 263/5/4 269/5/4 271/5/4
f 269/2/4 270/2/4 271/2/4
f 271/2/4 270/2/4 272/2/4
f 267/5/4 268/5/4 273/5/4
f 265/5/4 267/5/4 273/5/4
f 273/5/4 268/5/4 274/5/4
f 263/5/4 271/5/4 275/5/4
f 275/5/4 271/5/4 276/5/4
f 265/5/4 273/5/4 277/5/4
f 277/5/4 273/5/4 278/5/4
f 282/5/5 280/5/5 279/5/5
f 283/5/5 280/5/5 282/5/5
f 285/5/5 282/5/5 281/5/5
f 285/5/5 284/5/5 283/5/5
f 285/5/5 283/5/5 282/5/5
f 286/5/5 284/5/5 285/5/5
f 287/5/5 284/5/5 286/5/5
f 288/5/5 284/5/5 287/5/5
f 289/5/5 287/5/5 286/5/5
f 290/5/5 287/5/5 289/5/5
f 296/5/5 292/5/5 291/5/5
f 297/5/5 292/5/5 296/5/5
f 298/5/5 294/5/5 293/5/5
f 299/5/5 294/5/5 298/5/5
f 301/5/5 300/5/5 299/5/5
f 302/5/5 300/5/5 301/5/5
f 303/5/5 296/5/5 295/5/5
f 304/5/5 296/5/5 303/5/5
f 305/5/5 300/5/5 302/5/5
f 306/5/5 300/5/5 305/5/5
f 307/5/5 305/5/5 304/5/5
f 308/5/5 305/5/5 307/5/5
f 309/5/6 310/5/6 316/5/6
f 316/5/6 310/5/6 317/5/6
f 311/5/6 312/5/6 318/5/6
f 318/5/6 312/5/6 319/5/6
f 313/5/6 314/5/6 320/5/6
f 320/5/6 314/5/6 321/5/6
f 315/5/6 316/5/6 323/5/6
f 323/5/6 316/5/6 324/5/6
f 321/5/6 322/5/6 325/5/6
f 325/5/6 322/5/6 326/5/6
f 327/5/6 328/5/6 331/5/6
f 331/5/6 328/5/6 332/5/6
f 329/5/6 330/5/6 335/5/6
f 335/5/6 330/5/6 336/5/6
f 333/5/6 334/5/6 339/5/6
f 339/5/6 334/5/6 340/5/6
f 336/5/6 337/5/6 341/5/6
f 341/5/6 337/5/6 342/5/6
f 338/5/6 339/5/6 343/5/6
f 343/5/6 339/5/6 344/5/6
f 345/6/6 346/6/6 347/6/6
f 347/6/6 346/6/6 348/6/6
f 351/2/6 352/2/6 353/2/6
f 353/2/6 352/2/6 354/2/6
f 349/6/6 350/6/6 355/6/6
f 355/6/6 350/6/6 356/6/6
f 357/6/6 358/6/6 359/6/6
f 359/6/6 358/6/6 360/6/6
f 361/2/6 362/2/6 363/2/6
f 363/2/6 362/2/6 364/2/6
f 365/5/6 366/5/6 370/5/6
f 370/5/6 366/5/6 371/5/6
f 367/5/6 368/5/6 372/5/6
f 372/5/6 368/5/6 373/5/6
f 369/5/6 370/5/6 375/5/6
f 375/5/6 370/5/6 376/5/6
f 373/5/6 374/5/6 377/5/6
f 377/5/6 374/5/6 378/5/6
f 379/5/6 380/5/6 383/5/6
f 383/5/6 380/5/6 384/5/6
f 381/5/6 382/5/6 387/5/6
f 387/5/6 382/5/6 388/5/6
f 384/5/6 385/5/6 389/5/6
f 389/5/6 385/5/6 390/5/6
f 386/5/6 387/5/6 391/5/6
f 391/5/6 387/5/6 392/5/6
f 393/5/6 394/5/6 396/5/6
f 396/5/6 394/5/6 397/5/6
f 397/5/6 394/5/6 398/5/6
f 398/5/6 394/5/6 399/5/6
f 395/5/6 396/5/6 402/5/6
f 396/5/6 397/5/6 402/5/6
f 402/5/6 397/5/6 403/5/6
f 397/4/6 398/4/6 404/4/6
f 403/5/6 397/5/6 404/5/6
f 399/5/6 400/5/6 405/5/6
f 404/4/6 398/4/6 405/4/6
f 398/5/6 399/5/6 405/5/6
f 405/5/6 400/5/6 406/5/6
f 406/5/6 400/5/6 407/5/6
f 401/5/6 402/5/6 409/5/6
f 402/4/6 403/4/6 409/4/6
f 403/5/6 404/5/6 410/5/6
f 409/4/6 403/4/6 410/4/6
f 404/5/6 405/5/6 410/5/6
f 405/5/6 406/5/6 410/5/6
f 410/5/6 406/5/6 411/5/6
f 411/5/6 406/5/6 412/5/6
f 406/4/6 407/4/6 413/4/6
f 412/5/6 406/5/6 413/5/6
f 407/5/6 408/5/6 414/5/6
f 413/4/6 407/4/6 414/4/6
f 409/5/6 410/5/6 415/5/6
f 410/5/6 411/5/6 415/5/6
f 411/4/6 412/4/6 416/4/6
f 415/5/6 411/5/6 416/5/6
f 412/5/6 413/5/6 417/5/6
f 416/4/6 412/4/6 417/4/6
f 413/5/6 414/5/6 417/5/6
f 417/5/6 414/5/6 418/5/6
f 414/5/6 408/5/6 419/5/6
f 418/5/6 414/5/6 419/5/6
f 401/5/6 409/5/6 420/5/6
f 409/5/6 415/5/6 420/5/6
f 420/5/6 415/5/6 421/5/6
f 415/4/6 416/4/6 422/4/6
f 421/5/6 415/5/6 422/5/6
f 417/5/6 418/5/6 423/5/6
f 422/4/6 416/4/6 423/4/6
f 416/5/6 417/5/6 423/5/6
f 423/5/6 418/5/6 424/5/6
f 418/4/6 419/4/6 425/4/6
f 424/5/6 418/5/6 425/5/6
f 419/5/6 408/5/6 426/5/6
f 425/4/6 419/4/6 426/4/6
f 426/5/6 408/5/6 427/5/6
f 421/5/6 422/5/6 428/5/6
f 422/5/6 423/5/6 428/5/6
f 428/5/6 423/5/6 429/5/6
f 423/4/6 424/4/6 430/4/6
f 429/5/6 423/5/6 430/5/6
f 424/5/6 425/5/6 431/5/6
f 430/4/6 424/4/6 431/4/6
f 425/5/6 426/5/6 431/5/6
f 431/5/6 426/5/6 432/5/6
f 432/5/6 426/5/6 433/5/6
f 429/5/6 430/5/6 434/5/6
f 431/5/6 432/5/6 434/5/6
f 430/5/6 431/5/6 434/5/6
f 434/5/6 432/5/6 435/5/6
