# MagicaVoxel @ Ephtracy

# group
o 

# material
mtllib Heist_Btn.mtl
usemtl palette

# normals
vn -1 0 0
vn 1 0 0
vn 0 0 1
vn 0 0 -1
vn 0 -1 0
vn 0 1 0

# texcoords
vt 0.583984 0.5
vt 0.599609 0.5
vt 0.650391 0.5

# verts
v 0 2 -0.2
v 0 2 -0.9
v 0 2.2 -0.2
v 0 2.2 -0.9
v 0.1 2 -0.1
v 0.1 2 -0.2
v 0.1 2 -0.9
v 0.1 2 -1
v 0.1 2.2 -0.1
v 0.1 2.2 -0.2
v 0.1 2.2 -0.9
v 0.1 2.2 -1
v 0.2 2 0
v 0.2 2 -0.1
v 0.2 2 -1
v 0.2 2 -1.1
v 0.2 2.2 0
v 0.2 2.2 -0.1
v 0.2 2.2 -1
v 0.2 2.2 -1.1
v 0.4 2.1 -0.3
v 0.4 2.1 -0.8
v 0.4 2.2 -0.3
v 0.4 2.2 -0.8
v 0.7 2.1 -0.3
v 0.7 2.1 -0.5
v 0.7 2.1 -0.6
v 0.7 2.1 -0.8
v 0.7 2.2 -0.3
v 0.7 2.2 -0.5
v 0.7 2.2 -0.6
v 0.7 2.2 -0.8
v 0.9 2.1 -0.3
v 0.9 2.1 -0.8
v 0.9 2.2 -0.3
v 0.9 2.2 -0.8
v 1.3 2.1 -0.3
v 1.3 2.1 -0.4
v 1.3 2.1 -0.7
v 1.3 2.1 -0.8
v 1.3 2.2 -0.3
v 1.3 2.2 -0.4
v 1.3 2.2 -0.7
v 1.3 2.2 -0.8
v 1.4 2.1 -0.4
v 1.4 2.1 -0.7
v 1.4 2.2 -0.4
v 1.4 2.2 -0.7
v 1.7 2.1 -0.3
v 1.7 2.1 -0.4
v 1.7 2.1 -0.5
v 1.7 2.1 -0.8
v 1.7 2.2 -0.3
v 1.7 2.2 -0.4
v 1.7 2.2 -0.5
v 1.7 2.2 -0.8
v 1.9 2.1 -0.4
v 1.9 2.1 -0.5
v 1.9 2.2 -0.4
v 1.9 2.2 -0.5
v 2.1 2.1 -0.7
v 2.1 2.1 -0.8
v 2.1 2.2 -0.7
v 2.1 2.2 -0.8
v 2.3 2.1 -0.3
v 2.3 2.1 -0.7
v 2.3 2.2 -0.3
v 2.3 2.2 -0.7
v 2.7 2.1 -0.1
v 2.7 2.1 -0.2
v 2.7 2.1 -0.9
v 2.7 2.1 -1
v 2.7 2.2 -0.1
v 2.7 2.2 -0.2
v 2.7 2.2 -0.9
v 2.7 2.2 -1
v 2.8 2.1 -0.2
v 2.8 2.1 -0.9
v 2.8 2.2 -0.2
v 2.8 2.2 -0.9
v 0.1 2.1 -0.2
v 0.1 2.1 -0.9
v 0.1 2.2 -0.2
v 0.1 2.2 -0.9
v 0.2 2.1 -0.1
v 0.2 2.1 -0.2
v 0.2 2.1 -0.9
v 0.2 2.1 -1
v 0.2 2.2 -0.1
v 0.2 2.2 -0.2
v 0.2 2.2 -0.9
v 0.2 2.2 -1
v 0.5 2.1 -0.3
v 0.5 2.1 -0.5
v 0.5 2.1 -0.6
v 0.5 2.1 -0.8
v 0.5 2.2 -0.3
v 0.5 2.2 -0.5
v 0.5 2.2 -0.6
v 0.5 2.2 -0.8
v 0.8 2.1 -0.3
v 0.8 2.1 -0.8
v 0.8 2.2 -0.3
v 0.8 2.2 -0.8
v 1 2.1 -0.4
v 1 2.1 -0.5
v 1 2.1 -0.6
v 1 2.1 -0.7
v 1 2.2 -0.4
v 1 2.2 -0.5
v 1 2.2 -0.6
v 1 2.2 -0.7
v 1.1 2.1 -0.5
v 1.1 2.1 -0.6
v 1.1 2.2 -0.5
v 1.1 2.2 -0.6
v 1.2 2.1 -0.3
v 1.2 2.1 -0.4
v 1.2 2.1 -0.7
v 1.2 2.1 -0.8
v 1.2 2.2 -0.3
v 1.2 2.2 -0.4
v 1.2 2.2 -0.7
v 1.2 2.2 -0.8
v 1.5 2.1 -0.4
v 1.5 2.1 -0.7
v 1.5 2.2 -0.4
v 1.5 2.2 -0.7
v 1.6 2.1 -0.3
v 1.6 2.1 -0.4
v 1.6 2.1 -0.7
v 1.6 2.1 -0.8
v 1.6 2.2 -0.3
v 1.6 2.2 -0.4
v 1.6 2.2 -0.7
v 1.6 2.2 -0.8
v 1.8 2.1 -0.6
v 1.8 2.1 -0.7
v 1.8 2.2 -0.6
v 1.8 2.2 -0.7
v 2 2.1 -0.3
v 2 2.1 -0.6
v 2 2.1 -0.7
v 2 2.1 -0.8
v 2 2.2 -0.3
v 2 2.2 -0.6
v 2 2.2 -0.7
v 2 2.2 -0.8
v 2.4 2.1 -0.3
v 2.4 2.1 -0.7
v 2.4 2.2 -0.3
v 2.4 2.2 -0.7
v 2.6 2.1 -0.7
v 2.6 2.1 -0.8
v 2.6 2.2 -0.7
v 2.6 2.2 -0.8
v 2.7 2 0
v 2.7 2 -0.1
v 2.7 2 -1
v 2.7 2 -1.1
v 2.7 2.2 0
v 2.7 2.2 -0.1
v 2.7 2.2 -1
v 2.7 2.2 -1.1
v 2.8 2 -0.1
v 2.8 2 -0.2
v 2.8 2 -0.9
v 2.8 2 -1
v 2.8 2.2 -0.1
v 2.8 2.2 -0.2
v 2.8 2.2 -0.9
v 2.8 2.2 -1
v 2.9 2 -0.2
v 2.9 2 -0.9
v 2.9 2.2 -0.2
v 2.9 2.2 -0.9
v 0.2 2 0
v 0.2 2.2 0
v 2.7 2 0
v 2.7 2.2 0
v 0.1 2 -0.1
v 0.1 2.2 -0.1
v 0.2 2 -0.1
v 0.2 2.2 -0.1
v 2.7 2 -0.1
v 2.7 2.2 -0.1
v 2.8 2 -0.1
v 2.8 2.2 -0.1
v 0 2 -0.2
v 0 2.2 -0.2
v 0.1 2 -0.2
v 0.1 2.2 -0.2
v 2.8 2 -0.2
v 2.8 2.2 -0.2
v 2.9 2 -0.2
v 2.9 2.2 -0.2
v 0.4 2.1 -0.3
v 0.4 2.2 -0.3
v 0.5 2.1 -0.3
v 0.5 2.2 -0.3
v 0.7 2.1 -0.3
v 0.7 2.2 -0.3
v 0.8 2.1 -0.3
v 0.8 2.2 -0.3
v 0.9 2.1 -0.3
v 0.9 2.2 -0.3
v 1.2 2.1 -0.3
v 1.2 2.2 -0.3
v 1.3 2.1 -0.3
v 1.3 2.2 -0.3
v 1.6 2.1 -0.3
v 1.6 2.2 -0.3
v 1.7 2.1 -0.3
v 1.7 2.2 -0.3
v 2 2.1 -0.3
v 2 2.2 -0.3
v 2.3 2.1 -0.3
v 2.3 2.2 -0.3
v 2.4 2.1 -0.3
v 2.4 2.2 -0.3
v 0.5 2.1 -0.5
v 0.5 2.2 -0.5
v 0.7 2.1 -0.5
v 0.7 2.2 -0.5
v 1 2.1 -0.5
v 1 2.2 -0.5
v 1.1 2.1 -0.5
v 1.1 2.2 -0.5
v 1.7 2.1 -0.5
v 1.7 2.2 -0.5
v 1.9 2.1 -0.5
v 1.9 2.2 -0.5
v 1 2.1 -0.7
v 1 2.2 -0.7
v 1.2 2.1 -0.7
v 1.2 2.2 -0.7
v 1.3 2.1 -0.7
v 1.3 2.2 -0.7
v 1.4 2.1 -0.7
v 1.4 2.2 -0.7
v 1.5 2.1 -0.7
v 1.5 2.2 -0.7
v 1.6 2.1 -0.7
v 1.6 2.2 -0.7
v 1.8 2.1 -0.7
v 1.8 2.2 -0.7
v 2 2.1 -0.7
v 2 2.2 -0.7
v 2.1 2.1 -0.7
v 2.1 2.2 -0.7
v 2.3 2.1 -0.7
v 2.3 2.2 -0.7
v 2.4 2.1 -0.7
v 2.4 2.2 -0.7
v 2.6 2.1 -0.7
v 2.6 2.2 -0.7
v 0.1 2.1 -0.9
v 0.1 2.2 -0.9
v 0.2 2.1 -0.9
v 0.2 2.2 -0.9
v 2.7 2.1 -0.9
v 2.7 2.2 -0.9
v 2.8 2.1 -0.9
v 2.8 2.2 -0.9
v 0.2 2.1 -1
v 0.2 2.2 -1
v 2.7 2.1 -1
v 2.7 2.2 -1
v 0.2 2.1 -0.1
v 0.2 2.2 -0.1
v 2.7 2.1 -0.1
v 2.7 2.2 -0.1
v 0.1 2.1 -0.2
v 0.1 2.2 -0.2
v 0.2 2.1 -0.2
v 0.2 2.2 -0.2
v 2.7 2.1 -0.2
v 2.7 2.2 -0.2
v 2.8 2.1 -0.2
v 2.8 2.2 -0.2
v 1 2.1 -0.4
v 1 2.2 -0.4
v 1.2 2.1 -0.4
v 1.2 2.2 -0.4
v 1.3 2.1 -0.4
v 1.3 2.2 -0.4
v 1.4 2.1 -0.4
v 1.4 2.2 -0.4
v 1.5 2.1 -0.4
v 1.5 2.2 -0.4
v 1.6 2.1 -0.4
v 1.6 2.2 -0.4
v 1.7 2.1 -0.4
v 1.7 2.2 -0.4
v 1.9 2.1 -0.4
v 1.9 2.2 -0.4
v 0.5 2.1 -0.6
v 0.5 2.2 -0.6
v 0.7 2.1 -0.6
v 0.7 2.2 -0.6
v 1 2.1 -0.6
v 1 2.2 -0.6
v 1.1 2.1 -0.6
v 1.1 2.2 -0.6
v 1.8 2.1 -0.6
v 1.8 2.2 -0.6
v 2 2.1 -0.6
v 2 2.2 -0.6
v 0.4 2.1 -0.8
v 0.4 2.2 -0.8
v 0.5 2.1 -0.8
v 0.5 2.2 -0.8
v 0.7 2.1 -0.8
v 0.7 2.2 -0.8
v 0.8 2.1 -0.8
v 0.8 2.2 -0.8
v 0.9 2.1 -0.8
v 0.9 2.2 -0.8
v 1.2 2.1 -0.8
v 1.2 2.2 -0.8
v 1.3 2.1 -0.8
v 1.3 2.2 -0.8
v 1.6 2.1 -0.8
v 1.6 2.2 -0.8
v 1.7 2.1 -0.8
v 1.7 2.2 -0.8
v 2 2.1 -0.8
v 2 2.2 -0.8
v 2.1 2.1 -0.8
v 2.1 2.2 -0.8
v 2.6 2.1 -0.8
v 2.6 2.2 -0.8
v 0 2 -0.9
v 0 2.2 -0.9
v 0.1 2 -0.9
v 0.1 2.2 -0.9
v 2.8 2 -0.9
v 2.8 2.2 -0.9
v 2.9 2 -0.9
v 2.9 2.2 -0.9
v 0.1 2 -1
v 0.1 2.2 -1
v 0.2 2 -1
v 0.2 2.2 -1
v 2.7 2 -1
v 2.7 2.2 -1
v 2.8 2 -1
v 2.8 2.2 -1
v 0.2 2 -1.1
v 0.2 2.2 -1.1
v 2.7 2 -1.1
v 2.7 2.2 -1.1
v 0.2 2 0
v 2.7 2 0
v 0.1 2 -0.1
v 0.2 2 -0.1
v 2.7 2 -0.1
v 2.8 2 -0.1
v 0 2 -0.2
v 0.1 2 -0.2
v 0.2 2 -0.2
v 2.7 2 -0.2
v 2.8 2 -0.2
v 2.9 2 -0.2
v 0 2 -0.9
v 0.1 2 -0.9
v 0.2 2 -0.9
v 2.7 2 -0.9
v 2.8 2 -0.9
v 2.9 2 -0.9
v 0.1 2 -1
v 0.2 2 -1
v 2.7 2 -1
v 2.8 2 -1
v 0.2 2 -1.1
v 2.7 2 -1.1
v 0.2 2.1 -0.1
v 2.7 2.1 -0.1
v 0.1 2.1 -0.2
v 0.2 2.1 -0.2
v 2.7 2.1 -0.2
v 2.8 2.1 -0.2
v 0.4 2.1 -0.3
v 0.5 2.1 -0.3
v 0.7 2.1 -0.3
v 0.8 2.1 -0.3
v 0.9 2.1 -0.3
v 1.2 2.1 -0.3
v 1.3 2.1 -0.3
v 1.6 2.1 -0.3
v 1.7 2.1 -0.3
v 2 2.1 -0.3
v 2.3 2.1 -0.3
v 2.4 2.1 -0.3
v 1 2.1 -0.4
v 1.2 2.1 -0.4
v 1.3 2.1 -0.4
v 1.4 2.1 -0.4
v 1.5 2.1 -0.4
v 1.6 2.1 -0.4
v 1.7 2.1 -0.4
v 1.9 2.1 -0.4
v 0.5 2.1 -0.5
v 0.7 2.1 -0.5
v 1 2.1 -0.5
v 1.1 2.1 -0.5
v 1.7 2.1 -0.5
v 1.9 2.1 -0.5
v 0.5 2.1 -0.6
v 0.7 2.1 -0.6
v 1 2.1 -0.6
v 1.1 2.1 -0.6
v 1.8 2.1 -0.6
v 2 2.1 -0.6
v 1 2.1 -0.7
v 1.2 2.1 -0.7
v 1.3 2.1 -0.7
v 1.4 2.1 -0.7
v 1.5 2.1 -0.7
v 1.6 2.1 -0.7
v 1.8 2.1 -0.7
v 2 2.1 -0.7
v 2.1 2.1 -0.7
v 2.3 2.1 -0.7
v 2.4 2.1 -0.7
v 2.6 2.1 -0.7
v 0.4 2.1 -0.8
v 0.5 2.1 -0.8
v 0.7 2.1 -0.8
v 0.8 2.1 -0.8
v 0.9 2.1 -0.8
v 1.2 2.1 -0.8
v 1.3 2.1 -0.8
v 1.6 2.1 -0.8
v 1.7 2.1 -0.8
v 2 2.1 -0.8
v 2.1 2.1 -0.8
v 2.6 2.1 -0.8
v 0.1 2.1 -0.9
v 0.2 2.1 -0.9
v 2.7 2.1 -0.9
v 2.8 2.1 -0.9
v 0.2 2.1 -1
v 2.7 2.1 -1
v 0.2 2.2 0
v 2.7 2.2 0
v 0.1 2.2 -0.1
v 0.2 2.2 -0.1
v 2.7 2.2 -0.1
v 2.8 2.2 -0.1
v 0 2.2 -0.2
v 0.1 2.2 -0.2
v 0.2 2.2 -0.2
v 2.7 2.2 -0.2
v 2.8 2.2 -0.2
v 2.9 2.2 -0.2
v 0.4 2.2 -0.3
v 0.5 2.2 -0.3
v 0.7 2.2 -0.3
v 0.8 2.2 -0.3
v 0.9 2.2 -0.3
v 1.2 2.2 -0.3
v 1.3 2.2 -0.3
v 1.6 2.2 -0.3
v 1.7 2.2 -0.3
v 2 2.2 -0.3
v 2.3 2.2 -0.3
v 2.4 2.2 -0.3
v 1 2.2 -0.4
v 1.2 2.2 -0.4
v 1.3 2.2 -0.4
v 1.4 2.2 -0.4
v 1.5 2.2 -0.4
v 1.6 2.2 -0.4
v 1.7 2.2 -0.4
v 1.9 2.2 -0.4
v 0.5 2.2 -0.5
v 0.7 2.2 -0.5
v 1 2.2 -0.5
v 1.1 2.2 -0.5
v 1.7 2.2 -0.5
v 1.9 2.2 -0.5
v 0.5 2.2 -0.6
v 0.7 2.2 -0.6
v 1 2.2 -0.6
v 1.1 2.2 -0.6
v 1.8 2.2 -0.6
v 2 2.2 -0.6
v 1 2.2 -0.7
v 1.2 2.2 -0.7
v 1.3 2.2 -0.7
v 1.4 2.2 -0.7
v 1.5 2.2 -0.7
v 1.6 2.2 -0.7
v 1.8 2.2 -0.7
v 2 2.2 -0.7
v 2.1 2.2 -0.7
v 2.3 2.2 -0.7
v 2.4 2.2 -0.7
v 2.6 2.2 -0.7
v 0.4 2.2 -0.8
v 0.5 2.2 -0.8
v 0.7 2.2 -0.8
v 0.8 2.2 -0.8
v 0.9 2.2 -0.8
v 1.2 2.2 -0.8
v 1.3 2.2 -0.8
v 1.6 2.2 -0.8
v 1.7 2.2 -0.8
v 2 2.2 -0.8
v 2.1 2.2 -0.8
v 2.6 2.2 -0.8
v 0 2.2 -0.9
v 0.1 2.2 -0.9
v 0.2 2.2 -0.9
v 2.7 2.2 -0.9
v 2.8 2.2 -0.9
v 2.9 2.2 -0.9
v 0.1 2.2 -1
v 0.2 2.2 -1
v 2.7 2.2 -1
v 2.8 2.2 -1
v 0.2 2.2 -1.1
v 2.7 2.2 -1.1

# faces
f 3/3/1 2/3/1 1/3/1
f 4/3/1 2/3/1 3/3/1
f 9/3/1 6/3/1 5/3/1
f 10/3/1 6/3/1 9/3/1
f 11/3/1 8/3/1 7/3/1
f 12/3/1 8/3/1 11/3/1
f 17/3/1 14/3/1 13/3/1
f 18/3/1 14/3/1 17/3/1
f 19/3/1 16/3/1 15/3/1
f 20/3/1 16/3/1 19/3/1
f 23/2/1 22/2/1 21/2/1
f 24/2/1 22/2/1 23/2/1
f 29/2/1 26/2/1 25/2/1
f 30/2/1 26/2/1 29/2/1
f 31/2/1 28/2/1 27/2/1
f 32/2/1 28/2/1 31/2/1
f 35/2/1 34/2/1 33/2/1
f 36/2/1 34/2/1 35/2/1
f 41/2/1 38/2/1 37/2/1
f 42/2/1 38/2/1 41/2/1
f 43/2/1 40/2/1 39/2/1
f 44/2/1 40/2/1 43/2/1
f 47/2/1 46/2/1 45/2/1
f 48/2/1 46/2/1 47/2/1
f 53/2/1 50/2/1 49/2/1
f 54/2/1 50/2/1 53/2/1
f 55/2/1 52/2/1 51/2/1
f 56/2/1 52/2/1 55/2/1
f 59/2/1 58/2/1 57/2/1
f 60/2/1 58/2/1 59/2/1
f 63/2/1 62/2/1 61/2/1
f 64/2/1 62/2/1 63/2/1
f 67/2/1 66/2/1 65/2/1
f 68/2/1 66/2/1 67/2/1
f 73/3/1 70/3/1 69/3/1
f 74/3/1 70/3/1 73/3/1
f 75/3/1 72/3/1 71/3/1
f 76/3/1 72/3/1 75/3/1
f 79/3/1 78/3/1 77/3/1
f 80/3/1 78/3/1 79/3/1
f 81/3/2 82/3/2 83/3/2
f 83/3/2 82/3/2 84/3/2
f 85/3/2 86/3/2 89/3/2
f 89/3/2 86/3/2 90/3/2
f 87/3/2 88/3/2 91/3/2
f 91/3/2 88/3/2 92/3/2
f 93/2/2 94/2/2 97/2/2
f 97/2/2 94/2/2 98/2/2
f 95/2/2 96/2/2 99/2/2
f 99/2/2 96/2/2 100/2/2
f 101/2/2 102/2/2 103/2/2
f 103/2/2 102/2/2 104/2/2
f 105/2/2 106/2/2 109/2/2
f 109/2/2 106/2/2 110/2/2
f 107/2/2 108/2/2 111/2/2
f 111/2/2 108/2/2 112/2/2
f 113/2/2 114/2/2 115/2/2
f 115/2/2 114/2/2 116/2/2
f 117/2/2 118/2/2 121/2/2
f 121/2/2 118/2/2 122/2/2
f 119/2/2 120/2/2 123/2/2
f 123/2/2 120/2/2 124/2/2
f 125/2/2 126/2/2 127/2/2
f 127/2/2 126/2/2 128/2/2
f 129/2/2 130/2/2 133/2/2
f 133/2/2 130/2/2 134/2/2
f 131/2/2 132/2/2 135/2/2
f 135/2/2 132/2/2 136/2/2
f 137/2/2 138/2/2 139/2/2
f 139/2/2 138/2/2 140/2/2
f 141/2/2 142/2/2 145/2/2
f 145/2/2 142/2/2 146/2/2
f 143/2/2 144/2/2 147/2/2
f 147/2/2 144/2/2 148/2/2
f 149/2/2 150/2/2 151/2/2
f 151/2/2 150/2/2 152/2/2
f 153/2/2 154/2/2 155/2/2
f 155/2/2 154/2/2 156/2/2
f 157/3/2 158/3/2 161/3/2
f 161/3/2 158/3/2 162/3/2
f 159/3/2 160/3/2 163/3/2
f 163/3/2 160/3/2 164/3/2
f 165/3/2 166/3/2 169/3/2
f 169/3/2 166/3/2 170/3/2
f 167/3/2 168/3/2 171/3/2
f 171/3/2 168/3/2 172/3/2
f 173/3/2 174/3/2 175/3/2
f 175/3/2 174/3/2 176/3/2
f 179/3/3 178/3/3 177/3/3
f 180/3/3 178/3/3 179/3/3
f 183/3/3 182/3/3 181/3/3
f 184/3/3 182/3/3 183/3/3
f 187/3/3 186/3/3 185/3/3
f 188/3/3 186/3/3 187/3/3
f 191/3/3 190/3/3 189/3/3
f 192/3/3 190/3/3 191/3/3
f 195/3/3 194/3/3 193/3/3
f 196/3/3 194/3/3 195/3/3
f 199/2/3 198/2/3 197/2/3
f 200/2/3 198/2/3 199/2/3
f 203/2/3 202/2/3 201/2/3
f 204/2/3 202/2/3 203/2/3
f 207/2/3 206/2/3 205/2/3
f 208/2/3 206/2/3 207/2/3
f 211/2/3 210/2/3 209/2/3
f 212/2/3 210/2/3 211/2/3
f 215/2/3 214/2/3 213/2/3
f 216/2/3 214/2/3 215/2/3
f 219/2/3 218/2/3 217/2/3
f 220/2/3 218/2/3 219/2/3
f 223/2/3 222/2/3 221/2/3
f 224/2/3 222/2/3 223/2/3
f 227/2/3 226/2/3 225/2/3
f 228/2/3 226/2/3 227/2/3
f 231/2/3 230/2/3 229/2/3
f 232/2/3 230/2/3 231/2/3
f 235/2/3 234/2/3 233/2/3
f 236/2/3 234/2/3 235/2/3
f 239/2/3 238/2/3 237/2/3
f 240/2/3 238/2/3 239/2/3
f 243/2/3 242/2/3 241/2/3
f 244/2/3 242/2/3 243/2/3
f 247/2/3 246/2/3 245/2/3
f 248/2/3 246/2/3 247/2/3
f 251/2/3 250/2/3 249/2/3
f 252/2/3 250/2/3 251/2/3
f 255/2/3 254/2/3 253/2/3
f 256/2/3 254/2/3 255/2/3
f 259/3/3 258/3/3 257/3/3
f 260/3/3 258/3/3 259/3/3
f 263/3/3 262/3/3 261/3/3
f 264/3/3 262/3/3 263/3/3
f 267/3/3 266/3/3 265/3/3
f 268/3/3 266/3/3 267/3/3
f 269/3/4 270/3/4 271/3/4
f 271/3/4 270/3/4 272/3/4
f 273/3/4 274/3/4 275/3/4
f 275/3/4 274/3/4 276/3/4
f 277/3/4 278/3/4 279/3/4
f 279/3/4 278/3/4 280/3/4
f 281/2/4 282/2/4 283/2/4
f 283/2/4 282/2/4 284/2/4
f 285/2/4 286/2/4 287/2/4
f 287/2/4 286/2/4 288/2/4
f 289/2/4 290/2/4 291/2/4
f 291/2/4 290/2/4 292/2/4
f 293/2/4 294/2/4 295/2/4
f 295/2/4 294/2/4 296/2/4
f 297/2/4 298/2/4 299/2/4
f 299/2/4 298/2/4 300/2/4
f 301/2/4 302/2/4 303/2/4
f 303/2/4 302/2/4 304/2/4
f 305/2/4 306/2/4 307/2/4
f 307/2/4 306/2/4 308/2/4
f 309/2/4 310/2/4 311/2/4
f 311/2/4 310/2/4 312/2/4
f 313/2/4 314/2/4 315/2/4
f 315/2/4 314/2/4 316/2/4
f 317/2/4 318/2/4 319/2/4
f 319/2/4 318/2/4 320/2/4
f 321/2/4 322/2/4 323/2/4
f 323/2/4 322/2/4 324/2/4
f 325/2/4 326/2/4 327/2/4
f 327/2/4 326/2/4 328/2/4
f 329/2/4 330/2/4 331/2/4
f 331/2/4 330/2/4 332/2/4
f 333/3/4 334/3/4 335/3/4
f 335/3/4 334/3/4 336/3/4
f 337/3/4 338/3/4 339/3/4
f 339/3/4 338/3/4 340/3/4
f 341/3/4 342/3/4 343/3/4
f 343/3/4 342/3/4 344/3/4
f 345/3/4 346/3/4 347/3/4
f 347/3/4 346/3/4 348/3/4
f 349/3/4 350/3/4 351/3/4
f 351/3/4 350/3/4 352/3/4
f 356/3/5 354/3/5 353/3/5
f 357/3/5 354/3/5 356/3/5
f 360/3/5 356/3/5 355/3/5
f 361/1/5 357/1/5 356/1/5
f 361/3/5 356/3/5 360/3/5
f 362/3/5 358/3/5 357/3/5
f 362/1/5 357/1/5 361/1/5
f 363/3/5 358/3/5 362/3/5
f 365/3/5 360/3/5 359/3/5
f 366/1/5 361/1/5 360/1/5
f 366/3/5 360/3/5 365/3/5
f 366/1/5 362/1/5 361/1/5
f 366/1/5 363/1/5 362/1/5
f 367/1/5 363/1/5 366/1/5
f 368/1/5 363/1/5 367/1/5
f 369/3/5 364/3/5 363/3/5
f 369/1/5 363/1/5 368/1/5
f 370/3/5 364/3/5 369/3/5
f 371/3/5 367/3/5 366/3/5
f 372/1/5 368/1/5 367/1/5
f 372/3/5 367/3/5 371/3/5
f 373/3/5 369/3/5 368/3/5
f 373/1/5 368/1/5 372/1/5
f 374/3/5 369/3/5 373/3/5
f 375/3/5 373/3/5 372/3/5
f 376/3/5 373/3/5 375/3/5
f 377/1/6 378/1/6 380/1/6
f 380/1/6 378/1/6 381/1/6
f 379/1/6 380/1/6 383/1/6
f 381/1/6 382/1/6 383/1/6
f 380/1/6 381/1/6 383/1/6
f 383/1/6 382/1/6 384/1/6
f 384/1/6 382/1/6 385/1/6
f 385/1/6 382/1/6 386/1/6
f 386/1/6 382/1/6 387/1/6
f 387/1/6 382/1/6 388/1/6
f 388/1/6 382/1/6 389/1/6
f 389/1/6 382/1/6 390/1/6
f 390/1/6 382/1/6 391/1/6
f 391/1/6 382/1/6 392/1/6
f 392/1/6 382/1/6 393/1/6
f 393/1/6 382/1/6 394/1/6
f 388/1/6 389/1/6 396/1/6
f 396/1/6 389/1/6 397/1/6
f 390/1/6 391/1/6 400/1/6
f 400/1/6 391/1/6 401/1/6
f 384/1/6 385/1/6 403/1/6
f 403/1/6 385/1/6 404/1/6
f 397/1/6 398/1/6 405/1/6
f 395/1/6 396/1/6 405/1/6
f 396/1/6 397/1/6 405/1/6
f 405/1/6 398/1/6 406/1/6
f 401/1/6 402/1/6 407/1/6
f 400/1/6 401/1/6 407/1/6
f 399/1/6 400/1/6 407/1/6
f 407/1/6 402/1/6 408/1/6
f 406/1/6 398/1/6 412/1/6
f 392/1/6 393/1/6 414/1/6
f 411/1/6 412/1/6 415/1/6
f 412/1/6 398/1/6 416/1/6
f 415/1/6 412/1/6 416/1/6
f 416/1/6 398/1/6 417/1/6
f 417/1/6 398/1/6 418/1/6
f 399/1/6 407/1/6 419/1/6
f 419/1/6 407/1/6 420/1/6
f 413/1/6 414/1/6 421/1/6
f 414/1/6 393/1/6 422/1/6
f 421/1/6 414/1/6 422/1/6
f 422/1/6 393/1/6 423/1/6
f 423/1/6 393/1/6 424/1/6
f 394/1/6 382/1/6 425/1/6
f 425/1/6 382/1/6 426/1/6
f 379/1/6 383/1/6 427/1/6
f 409/1/6 410/1/6 428/1/6
f 428/1/6 410/1/6 429/1/6
f 386/1/6 387/1/6 430/1/6
f 430/1/6 387/1/6 431/1/6
f 416/1/6 417/1/6 432/1/6
f 432/1/6 417/1/6 433/1/6
f 420/1/6 407/1/6 434/1/6
f 434/1/6 407/1/6 435/1/6
f 422/1/6 423/1/6 436/1/6
f 436/1/6 423/1/6 437/1/6
f 426/1/6 382/1/6 438/1/6
f 436/1/6 437/1/6 439/1/6
f 437/1/6 438/1/6 439/1/6
f 379/1/6 427/1/6 439/1/6
f 432/1/6 433/1/6 439/1/6
f 435/1/6 436/1/6 439/1/6
f 428/1/6 429/1/6 439/1/6
f 433/1/6 434/1/6 439/1/6
f 434/1/6 435/1/6 439/1/6
f 431/1/6 432/1/6 439/1/6
f 430/1/6 431/1/6 439/1/6
f 429/1/6 430/1/6 439/1/6
f 427/1/6 428/1/6 439/1/6
f 439/1/6 438/1/6 440/1/6
f 438/1/6 382/1/6 441/1/6
f 440/1/6 438/1/6 441/1/6
f 441/1/6 382/1/6 442/1/6
f 440/1/6 441/1/6 443/1/6
f 443/1/6 441/1/6 444/1/6
f 445/3/6 446/3/6 448/3/6
f 448/3/6 446/3/6 449/3/6
f 447/3/6 448/3/6 452/3/6
f 452/3/6 448/3/6 453/3/6
f 449/3/6 450/3/6 454/3/6
f 454/3/6 450/3/6 455/3/6
f 461/2/6 462/2/6 469/2/6
f 469/2/6 462/2/6 470/2/6
f 463/2/6 464/2/6 471/2/6
f 471/2/6 464/2/6 472/2/6
f 472/2/6 464/2/6 473/2/6
f 473/2/6 464/2/6 474/2/6
f 465/2/6 466/2/6 475/2/6
f 475/2/6 466/2/6 476/2/6
f 457/2/6 458/2/6 477/2/6
f 459/2/6 460/2/6 478/2/6
f 461/2/6 469/2/6 479/2/6
f 476/2/6 466/2/6 482/2/6
f 457/2/6 477/2/6 483/2/6
f 477/2/6 478/2/6 483/2/6
f 478/2/6 460/2/6 484/2/6
f 483/2/6 478/2/6 484/2/6
f 479/2/6 480/2/6 485/2/6
f 461/2/6 479/2/6 485/2/6
f 485/2/6 480/2/6 486/2/6
f 481/2/6 482/2/6 487/2/6
f 482/2/6 466/2/6 488/2/6
f 487/2/6 482/2/6 488/2/6
f 461/2/6 485/2/6 489/2/6
f 472/2/6 473/2/6 492/2/6
f 492/2/6 473/2/6 493/2/6
f 481/2/6 487/2/6 495/2/6
f 467/2/6 468/2/6 498/2/6
f 498/2/6 468/2/6 499/2/6
f 457/2/6 483/2/6 501/2/6
f 501/2/6 483/2/6 502/2/6
f 484/2/6 460/2/6 503/2/6
f 503/2/6 460/2/6 504/2/6
f 489/2/6 490/2/6 505/2/6
f 461/2/6 489/2/6 505/2/6
f 505/2/6 490/2/6 506/2/6
f 493/2/6 494/2/6 507/2/6
f 491/2/6 492/2/6 507/2/6
f 492/2/6 493/2/6 507/2/6
f 507/2/6 494/2/6 508/2/6
f 495/2/6 496/2/6 509/2/6
f 481/2/6 495/2/6 509/2/6
f 509/2/6 496/2/6 510/2/6
f 499/2/6 500/2/6 511/2/6
f 497/2/6 498/2/6 511/2/6
f 498/2/6 499/2/6 511/2/6
f 511/2/6 500/2/6 512/2/6
f 451/3/6 452/3/6 513/3/6
f 513/3/6 452/3/6 514/3/6
f 455/3/6 456/3/6 517/3/6
f 517/3/6 456/3/6 518/3/6
f 514/3/6 515/3/6 519/3/6
f 519/3/6 515/3/6 520/3/6
f 516/3/6 517/3/6 521/3/6
f 521/3/6 517/3/6 522/3/6
f 520/3/6 521/3/6 523/3/6
f 523/3/6 521/3/6 524/3/6
